<svg width="1453" height="514" viewBox="0 0 1453 514" fill="none" xmlns="http://www.w3.org/2000/svg">
<rect opacity="0.1" x="1" y="1" width="85.3333" height="85.3333" rx="16" stroke="#202329"/>
<rect opacity="0.1" x="1" y="86.333" width="85.3333" height="85.3333" rx="16" stroke="#202329"/>
<rect opacity="0.1" x="1" y="171.667" width="85.3333" height="85.3333" rx="16" stroke="#202329"/>
<rect opacity="0.1" x="1" y="257" width="85.3333" height="85.3333" rx="16" stroke="#202329"/>
<rect opacity="0.1" x="1" y="342.333" width="85.3333" height="85.3333" rx="16" stroke="#202329"/>
<rect opacity="0.1" x="1" y="427.666" width="85.3333" height="85.3333" rx="16" stroke="#202329"/>
<rect opacity="0.2" x="86.333" y="1" width="85.3333" height="85.3333" rx="16" stroke="#202329"/>
<rect opacity="0.2" x="86.333" y="86.333" width="85.3333" height="85.3333" rx="16" stroke="#202329"/>
<rect opacity="0.2" x="86.333" y="171.667" width="85.3333" height="85.3333" rx="16" stroke="#202329"/>
<rect opacity="0.2" x="86.333" y="257" width="85.3333" height="85.3333" rx="16" stroke="#202329"/>
<rect opacity="0.2" x="86.333" y="342.333" width="85.3333" height="85.3333" rx="16" stroke="#202329"/>
<rect opacity="0.2" x="86.333" y="427.666" width="85.3333" height="85.3333" rx="16" stroke="#202329"/>
<rect opacity="0.4" x="171.667" y="1" width="85.3333" height="85.3333" rx="16" stroke="#202329"/>
<rect opacity="0.4" x="171.667" y="86.333" width="85.3333" height="85.3333" rx="16" stroke="#202329"/>
<rect opacity="0.4" x="171.667" y="171.667" width="85.3333" height="85.3333" rx="16" stroke="#202329"/>
<rect opacity="0.4" x="171.667" y="257" width="85.3333" height="85.3333" rx="16" stroke="#202329"/>
<rect opacity="0.4" x="171.667" y="342.333" width="85.3333" height="85.3333" rx="16" stroke="#202329"/>
<rect opacity="0.4" x="171.667" y="427.666" width="85.3333" height="85.3333" rx="16" stroke="#202329"/>
<rect opacity="0.5" x="257" y="1" width="85.3333" height="85.3333" rx="16" stroke="#202329"/>
<rect opacity="0.5" x="257" y="86.333" width="85.3333" height="85.3333" rx="16" stroke="#202329"/>
<rect opacity="0.5" x="257" y="171.667" width="85.3333" height="85.3333" rx="16" stroke="#202329"/>
<rect opacity="0.5" x="257" y="257" width="85.3333" height="85.3333" rx="16" stroke="#202329"/>
<rect opacity="0.5" x="257" y="342.333" width="85.3333" height="85.3333" rx="16" stroke="#202329"/>
<rect opacity="0.5" x="257" y="427.666" width="85.3333" height="85.3333" rx="16" stroke="#202329"/>
<rect opacity="0.5" x="342.333" y="1" width="85.3333" height="85.3333" rx="16" stroke="#202329"/>
<rect opacity="0.5" x="342.333" y="86.333" width="85.3333" height="85.3333" rx="16" stroke="#202329"/>
<rect opacity="0.5" x="342.333" y="171.667" width="85.3333" height="85.3333" rx="16" stroke="#202329"/>
<rect opacity="0.5" x="342.333" y="257" width="85.3333" height="85.3333" rx="16" stroke="#202329"/>
<rect opacity="0.5" x="342.333" y="342.333" width="85.3333" height="85.3333" rx="16" stroke="#202329"/>
<rect opacity="0.5" x="342.333" y="427.666" width="85.3333" height="85.3333" rx="16" stroke="#202329"/>
<rect opacity="0.6" x="427.667" y="1" width="85.3333" height="85.3333" rx="16" stroke="#202329"/>
<rect opacity="0.6" x="427.667" y="86.333" width="85.3333" height="85.3333" rx="16" stroke="#202329"/>
<rect opacity="0.6" x="427.667" y="171.667" width="85.3333" height="85.3333" rx="16" stroke="#202329"/>
<rect opacity="0.6" x="427.667" y="257" width="85.3333" height="85.3333" rx="16" stroke="#202329"/>
<rect opacity="0.6" x="427.667" y="342.333" width="85.3333" height="85.3333" rx="16" stroke="#202329"/>
<rect opacity="0.6" x="427.667" y="427.666" width="85.3333" height="85.3333" rx="16" stroke="#202329"/>
<rect opacity="0.7" x="513" y="1" width="85.3333" height="85.3333" rx="16" stroke="#202329"/>
<rect opacity="0.7" x="513" y="86.333" width="85.3333" height="85.3333" rx="16" stroke="#202329"/>
<rect opacity="0.7" x="513" y="171.667" width="85.3333" height="85.3333" rx="16" stroke="#202329"/>
<rect opacity="0.7" x="513" y="257" width="85.3333" height="85.3333" rx="16" stroke="#202329"/>
<rect opacity="0.7" x="513" y="342.333" width="85.3333" height="85.3333" rx="16" stroke="#202329"/>
<rect opacity="0.7" x="513" y="427.666" width="85.3333" height="85.3333" rx="16" stroke="#202329"/>
<rect opacity="0.8" x="598.333" y="1" width="85.3333" height="85.3333" rx="16" stroke="#202329"/>
<rect opacity="0.8" x="598.333" y="86.333" width="85.3333" height="85.3333" rx="16" stroke="#202329"/>
<rect opacity="0.8" x="598.333" y="171.667" width="85.3333" height="85.3333" rx="16" stroke="#202329"/>
<rect opacity="0.8" x="598.333" y="257" width="85.3333" height="85.3333" rx="16" stroke="#202329"/>
<rect opacity="0.8" x="598.333" y="342.333" width="85.3333" height="85.3333" rx="16" stroke="#202329"/>
<rect opacity="0.8" x="598.333" y="427.666" width="85.3333" height="85.3333" rx="16" stroke="#202329"/>
<rect x="683.667" y="1" width="85.3333" height="85.3333" rx="16" stroke="#202329"/>
<rect x="683.667" y="86.333" width="85.3333" height="85.3333" rx="16" stroke="#202329"/>
<rect x="683.667" y="171.667" width="85.3333" height="85.3333" rx="16" stroke="#202329"/>
<rect x="683.667" y="257" width="85.3333" height="85.3333" rx="16" stroke="#202329"/>
<rect x="683.667" y="342.333" width="85.3333" height="85.3333" rx="16" stroke="#202329"/>
<rect x="683.667" y="427.666" width="85.3333" height="85.3333" rx="16" stroke="#202329"/>
<rect opacity="0.8" x="769" y="1" width="85.3333" height="85.3333" rx="16" stroke="#202329"/>
<rect opacity="0.8" x="769" y="86.333" width="85.3333" height="85.3333" rx="16" stroke="#202329"/>
<rect opacity="0.8" x="769" y="171.667" width="85.3333" height="85.3333" rx="16" stroke="#202329"/>
<rect opacity="0.8" x="769" y="257" width="85.3333" height="85.3333" rx="16" stroke="#202329"/>
<rect opacity="0.8" x="769" y="342.333" width="85.3333" height="85.3333" rx="16" stroke="#202329"/>
<rect opacity="0.8" x="769" y="427.666" width="85.3333" height="85.3333" rx="16" stroke="#202329"/>
<rect opacity="0.7" x="854.334" y="1" width="85.3333" height="85.3333" rx="16" stroke="#202329"/>
<rect opacity="0.7" x="854.334" y="86.333" width="85.3333" height="85.3333" rx="16" stroke="#202329"/>
<rect opacity="0.7" x="854.334" y="171.667" width="85.3333" height="85.3333" rx="16" stroke="#202329"/>
<rect opacity="0.7" x="854.334" y="257" width="85.3333" height="85.3333" rx="16" stroke="#202329"/>
<rect opacity="0.7" x="854.334" y="342.333" width="85.3333" height="85.3333" rx="16" stroke="#202329"/>
<rect opacity="0.7" x="854.334" y="427.666" width="85.3333" height="85.3333" rx="16" stroke="#202329"/>
<rect opacity="0.6" x="939.666" y="1" width="85.3333" height="85.3333" rx="16" stroke="#202329"/>
<rect opacity="0.6" x="939.666" y="86.333" width="85.3333" height="85.3333" rx="16" stroke="#202329"/>
<rect opacity="0.6" x="939.666" y="171.667" width="85.3333" height="85.3333" rx="16" stroke="#202329"/>
<rect opacity="0.6" x="939.666" y="257" width="85.3333" height="85.3333" rx="16" stroke="#202329"/>
<rect opacity="0.6" x="939.666" y="342.333" width="85.3333" height="85.3333" rx="16" stroke="#202329"/>
<rect opacity="0.6" x="939.666" y="427.666" width="85.3333" height="85.3333" rx="16" stroke="#202329"/>
<rect opacity="0.5" x="1025" y="1" width="85.3333" height="85.3333" rx="16" stroke="#202329"/>
<rect opacity="0.5" x="1025" y="86.333" width="85.3333" height="85.3333" rx="16" stroke="#202329"/>
<rect opacity="0.5" x="1025" y="171.667" width="85.3333" height="85.3333" rx="16" stroke="#202329"/>
<rect opacity="0.5" x="1025" y="257" width="85.3333" height="85.3333" rx="16" stroke="#202329"/>
<rect opacity="0.5" x="1025" y="342.333" width="85.3333" height="85.3333" rx="16" stroke="#202329"/>
<rect opacity="0.5" x="1025" y="427.666" width="85.3333" height="85.3333" rx="16" stroke="#202329"/>
<rect opacity="0.4" x="1110.33" y="1" width="85.3333" height="85.3333" rx="16" stroke="#202329"/>
<rect opacity="0.4" x="1110.33" y="86.333" width="85.3333" height="85.3333" rx="16" stroke="#202329"/>
<rect opacity="0.4" x="1110.33" y="171.667" width="85.3333" height="85.3333" rx="16" stroke="#202329"/>
<rect opacity="0.4" x="1110.33" y="257" width="85.3333" height="85.3333" rx="16" stroke="#202329"/>
<rect opacity="0.4" x="1110.33" y="342.333" width="85.3333" height="85.3333" rx="16" stroke="#202329"/>
<rect opacity="0.4" x="1110.33" y="427.666" width="85.3333" height="85.3333" rx="16" stroke="#202329"/>
<rect opacity="0.3" x="1195.67" y="1" width="85.3333" height="85.3333" rx="16" stroke="#202329"/>
<rect opacity="0.3" x="1195.67" y="86.333" width="85.3333" height="85.3333" rx="16" stroke="#202329"/>
<rect opacity="0.3" x="1195.67" y="171.667" width="85.3333" height="85.3333" rx="16" stroke="#202329"/>
<rect opacity="0.3" x="1195.67" y="257" width="85.3333" height="85.3333" rx="16" stroke="#202329"/>
<rect opacity="0.3" x="1195.67" y="342.333" width="85.3333" height="85.3333" rx="16" stroke="#202329"/>
<rect opacity="0.3" x="1195.67" y="427.666" width="85.3333" height="85.3333" rx="16" stroke="#202329"/>
<rect opacity="0.2" x="1281" y="1" width="85.3333" height="85.3333" rx="16" stroke="#202329"/>
<rect opacity="0.2" x="1281" y="86.333" width="85.3333" height="85.3333" rx="16" stroke="#202329"/>
<rect opacity="0.2" x="1281" y="171.667" width="85.3333" height="85.3333" rx="16" stroke="#202329"/>
<rect opacity="0.2" x="1281" y="257" width="85.3333" height="85.3333" rx="16" stroke="#202329"/>
<rect opacity="0.2" x="1281" y="342.333" width="85.3333" height="85.3333" rx="16" stroke="#202329"/>
<rect opacity="0.2" x="1281" y="427.666" width="85.3333" height="85.3333" rx="16" stroke="#202329"/>
<rect opacity="0.1" x="1366.33" y="1" width="85.3333" height="85.3333" rx="16" stroke="#202329"/>
<rect opacity="0.1" x="1366.33" y="86.333" width="85.3333" height="85.3333" rx="16" stroke="#202329"/>
<rect opacity="0.1" x="1366.33" y="171.667" width="85.3333" height="85.3333" rx="16" stroke="#202329"/>
<rect opacity="0.1" x="1366.33" y="257" width="85.3333" height="85.3333" rx="16" stroke="#202329"/>
<rect opacity="0.1" x="1366.33" y="342.333" width="85.3333" height="85.3333" rx="16" stroke="#202329"/>
<rect opacity="0.1" x="1366.33" y="427.666" width="85.3333" height="85.3333" rx="16" stroke="#202329"/>
<path d="M598 154L600.628 161.101C602.046 164.933 605.067 167.954 608.899 169.372L616 172L608.899 174.628C605.067 176.046 602.046 179.067 600.628 182.899L598 190L595.372 182.899C593.954 179.067 590.933 176.046 587.101 174.628L580 172L587.101 169.372C590.933 167.954 593.954 164.933 595.372 161.101L598 154Z" fill="#202329"/>
<path d="M769 154L771.628 161.101C773.046 164.933 776.067 167.954 779.899 169.372L787 172L779.899 174.628C776.067 176.046 773.046 179.067 771.628 182.899L769 190L766.372 182.899C764.954 179.067 761.933 176.046 758.101 174.628L751 172L758.101 169.372C761.933 167.954 764.954 164.933 766.372 161.101L769 154Z" fill="#1F2128"/>
<path d="M1025 239L1027.63 246.101C1029.05 249.933 1032.07 252.954 1035.9 254.372L1043 257L1035.9 259.628C1032.07 261.046 1029.05 264.067 1027.63 267.899L1025 275L1022.37 267.899C1020.95 264.067 1017.93 261.046 1014.1 259.628L1007 257L1014.1 254.372C1017.93 252.954 1020.95 249.933 1022.37 246.101L1025 239Z" fill="#181A1F"/>
<path d="M257 324L259.628 331.101C261.046 334.933 264.067 337.954 267.899 339.372L275 342L267.899 344.628C264.067 346.046 261.046 349.067 259.628 352.899L257 360L254.372 352.899C252.954 349.067 249.933 346.046 246.101 344.628L239 342L246.101 339.372C249.933 337.954 252.954 334.933 254.372 331.101L257 324Z" fill="#15161B"/>
<path d="M684 239L686.628 246.101C688.046 249.933 691.067 252.954 694.899 254.372L702 257L694.899 259.628C691.067 261.046 688.046 264.067 686.628 267.899L684 275L681.372 267.899C679.954 264.067 676.933 261.046 673.101 259.628L666 257L673.101 254.372C676.933 252.954 679.954 249.933 681.372 246.101L684 239Z" fill="#202329"/>
</svg>
