<svg width="297" height="297" viewBox="0 0 297 297" fill="none" xmlns="http://www.w3.org/2000/svg">
<circle cx="148.149" cy="148.149" r="82.5749" transform="rotate(58.8536 148.149 148.149)" fill="#EBF479" stroke="black" stroke-width="2"/>
<path d="M126.011 163.848C137.014 168.245 153.097 147.857 142.139 128.94C134.287 115.387 112.022 110.548 99.5137 110.615C99.587 109.785 98.8976 107.825 95.554 106.625C93.8344 106.007 90.9834 107.003 87.9615 109.489C83.639 113.045 78.9669 119.651 76.7562 128.946C76.5264 129.912 76.3554 130.818 76.2376 131.666C74.9995 140.589 79.6535 143.131 83.834 141.773C86.3094 144.609 90.7236 146.748 93.1595 146.461C90.7564 149.4 91.4379 155.011 96.1571 159.389C99.9325 162.891 104.964 162.551 107.058 161.569C110.771 163.743 115.23 163.629 116.87 163.025C120.532 164.34 123.16 164.907 126.011 163.848Z" fill="#EDFF00"/>
<path d="M88.1592 120.964C92.4114 112.876 98.0561 110.623 99.5137 110.615M126.011 163.848C137.014 168.245 153.097 147.857 142.139 128.94C134.287 115.387 112.022 110.548 99.5137 110.615M126.011 163.848C123.16 164.907 120.532 164.34 116.87 163.025M126.011 163.848C130.678 162.114 136.96 152.126 138.938 144.115M116.87 163.025C119.33 162.12 127.363 160.084 131.602 143.27M116.87 163.025C115.23 163.629 110.771 163.743 107.058 161.569M107.058 161.569C111.38 159.544 117.397 157.177 122.134 142.107M107.058 161.569C104.964 162.551 99.9325 162.891 96.1571 159.389C91.4379 155.011 90.7564 149.4 93.1595 146.461M93.1595 146.461C95.082 144.11 98.6194 141.267 102.912 143.703M93.1595 146.461C90.7236 146.748 86.3094 144.609 83.834 141.773M102.912 143.703C101.945 145.145 101.291 147.592 101.931 148.941M102.912 143.703C102.912 143.703 103.879 142.261 105.387 140.566C102.415 141.959 97.5384 144.904 88.7387 140.627M82.8404 132.024C82.0585 134.202 81.331 139.358 83.834 141.773M99.5137 110.615C99.587 109.785 98.8976 107.825 95.554 106.625C93.8344 106.007 90.9834 107.003 87.9615 109.489C83.639 113.045 78.9669 119.651 76.7562 128.946C76.5264 129.912 76.3554 130.818 76.2376 131.666C74.9995 140.589 79.6535 143.131 83.834 141.773" stroke="black" stroke-linecap="round" stroke-linejoin="round"/>
<path d="M149.317 176.474C139.549 169.765 147.575 145.068 169.392 143.677C185.024 142.681 201.412 158.511 208.302 168.951C208.951 168.429 210.964 167.914 213.819 170.028C215.287 171.116 216.042 174.04 215.653 177.933C215.096 183.503 212.197 191.056 205.694 198.056C205.018 198.784 204.36 199.429 203.719 199.998C196.986 205.983 192.288 203.523 191.096 199.293C187.363 198.809 183.133 196.325 182.018 194.141C180.909 197.771 175.864 200.32 169.602 198.826C164.593 197.631 162.082 193.258 161.736 190.972C157.867 189.09 155.485 185.318 155.076 183.619C151.95 181.304 150.019 179.434 149.317 176.474Z" fill="#5B56F3"/>
<path d="M206 184.141C210.365 176.113 209.105 170.168 208.302 168.951M149.317 176.474C139.549 169.765 147.575 145.068 169.392 143.677C185.024 142.681 201.412 158.511 208.302 168.951M149.317 176.474C150.019 179.434 151.95 181.304 155.076 183.619M149.317 176.474C148.167 171.63 152.986 160.859 158.55 154.766M155.076 183.619C154.464 181.071 151.696 173.26 163.326 160.398M155.076 183.619C155.485 185.318 157.867 189.09 161.736 190.972M161.736 190.972C161.021 186.252 159.648 179.934 169.551 167.626M161.736 190.972C162.082 193.258 164.593 197.631 169.602 198.826C175.864 200.32 180.909 197.771 182.018 194.141M182.018 194.141C182.906 191.236 183.306 186.716 178.897 184.498M182.018 194.141C183.133 196.325 187.363 198.809 191.096 199.293M178.897 184.498C178.235 186.103 176.563 188.006 175.086 188.223M178.897 184.498C178.897 184.498 179.559 182.893 180.131 180.698C180.623 183.943 180.882 189.634 189.326 194.577M199.755 194.706C198.378 196.565 194.494 200.033 191.096 199.293M208.302 168.951C208.951 168.429 210.964 167.914 213.819 170.028C215.287 171.116 216.042 174.04 215.653 177.933C215.096 183.503 212.197 191.056 205.694 198.056C205.018 198.784 204.36 199.429 203.719 199.998C196.986 205.983 192.288 203.523 191.096 199.293" stroke="black" stroke-linecap="round" stroke-linejoin="round"/>
<path d="M130.095 113.656C130.095 113.656 134.933 115.818 137.314 115.084C139.692 114.35 141.899 109.802 143.023 105.843C145.233 110.113 147.76 116.079 153.692 116.483C158.11 116.784 161.966 111.482 165.992 107.637C165.389 113.65 165.532 119.212 170.185 122.754C174.108 125.74 180.386 124.301 183.48 122.221C181.593 125.646 178.508 131.844 180.179 135.777C181.833 139.67 185.998 140.733 187.862 140.312" stroke="black" stroke-width="2" stroke-linecap="round" stroke-linejoin="round"/>
<path d="M106.35 105.897L98.2063 97.2202L102.483 93.2065C103.45 92.2991 104.468 91.6779 105.537 91.343C106.598 90.9998 107.637 90.9566 108.656 91.2134C109.674 91.4701 110.602 92.0448 111.439 92.9373C112.285 93.838 112.807 94.8087 113.007 95.8493C113.198 96.8817 113.093 97.9207 112.691 98.9663C112.282 100.004 111.593 100.976 110.626 101.884L106.35 105.897ZM107.135 100.871L108.362 99.7191C108.775 99.3313 109.061 98.9154 109.219 98.4714C109.386 98.0197 109.413 97.5595 109.299 97.0908C109.178 96.6139 108.908 96.1524 108.489 95.7061C108.078 95.2681 107.642 94.9777 107.182 94.8348C106.721 94.6919 106.26 94.6893 105.799 94.8271C105.346 94.957 104.913 95.2159 104.499 95.6037L103.272 96.7554L107.135 100.871Z" fill="black"/>
<path d="M114.95 97.5935L114.313 84.6218L117.845 82.8667L127.799 91.2086L124.085 93.0545L116.196 85.8125L117.597 85.1165L118.604 95.7779L114.95 97.5935ZM116.798 94.3594L116.426 91.3174L121.328 88.8814L123.527 91.0156L116.798 94.3594Z" fill="black"/>
<path d="M127.767 91.4883L125.27 79.8533L130.871 78.651C131.957 78.4179 132.932 78.3942 133.795 78.58C134.669 78.7633 135.393 79.141 135.968 79.7131C136.54 80.2741 136.923 81.0034 137.116 81.901C137.308 82.7985 137.259 83.6206 136.967 84.3671C136.675 85.1137 136.169 85.7554 135.45 86.2923C134.739 86.8158 133.841 87.194 132.755 87.4271L129.331 88.162L130.716 86.1087L131.69 90.6463L127.767 91.4883ZM130.809 86.5408L128.682 85.1369L131.857 84.4555C132.4 84.339 132.772 84.1315 132.975 83.833C133.188 83.5321 133.25 83.1712 133.16 82.7501C133.069 82.329 132.865 82.0251 132.547 81.8384C132.24 81.6493 131.814 81.6131 131.271 81.7296L128.097 82.411L129.46 80.2579L130.809 86.5408Z" fill="black"/>
<path d="M139.83 89.0112L140.023 77.1128L145.887 77.2078C147.213 77.2293 148.376 77.4918 149.377 77.9955C150.378 78.4877 151.154 79.1804 151.706 80.0735C152.259 80.9665 152.525 82.025 152.505 83.2488C152.485 84.484 152.185 85.5446 151.603 86.4306C151.023 87.3053 150.224 87.9782 149.207 88.4491C148.191 88.9087 147.02 89.1277 145.694 89.1062L139.83 89.0112ZM143.892 85.9486L145.575 85.9759C146.142 85.9851 146.636 85.8854 147.059 85.6769C147.493 85.4686 147.833 85.1567 148.077 84.7413C148.322 84.3145 148.45 83.7952 148.46 83.1833C148.469 82.5827 148.359 82.0708 148.127 81.6477C147.896 81.2246 147.567 80.9018 147.14 80.6796C146.724 80.4575 146.233 80.3418 145.666 80.3326L143.984 80.3054L143.892 85.9486Z" fill="black"/>
<path d="M152.322 89.1205L160.043 78.6771L163.888 79.5551L166.31 92.3146L162.266 91.3912L160.746 80.7907L162.271 81.1389L156.3 90.0287L152.322 89.1205ZM155.8 87.7873L157.438 85.1969L162.775 86.4155L163.126 89.46L155.8 87.7873Z" fill="black"/>
<path d="M166.265 92.4344L171.016 81.5239L176.269 83.8112C177.287 84.2546 178.093 84.8032 178.686 85.457C179.289 86.1153 179.658 86.8444 179.791 87.6443C179.93 88.4338 179.816 89.2494 179.449 90.0911C179.083 90.9327 178.563 91.5719 177.891 92.0085C177.219 92.4451 176.434 92.6719 175.537 92.689C174.654 92.7003 173.704 92.4842 172.685 92.0408L169.474 90.6426L171.797 89.7811L169.944 94.0361L166.265 92.4344ZM171.62 90.1863L170.71 87.8059L173.687 89.1023C174.196 89.324 174.62 89.3726 174.958 89.248C175.307 89.128 175.568 88.8706 175.74 88.4757C175.912 88.0809 175.923 87.7149 175.773 87.3777C175.633 87.045 175.309 86.7678 174.8 86.5461L171.823 85.2498L174.186 84.2947L171.62 90.1863Z" fill="black"/>
<path d="M182.746 100.449L190.567 91.4801L193.053 93.6475L191.535 102.631L190.228 101.492L198.819 98.6752L201.304 100.843L193.509 109.834L190.754 107.432L194.93 102.592L195.365 102.972L189.485 104.904L188.153 103.742L189.164 97.5643L189.702 98.0336L185.501 102.851L182.746 100.449Z" fill="black"/>
<path d="M202.718 109.853L205.794 114.174L203.439 115.85L200.363 111.529L202.718 109.853ZM199.247 112.658L202.698 117.505L200.232 119.26L194.495 111.2L204.189 104.299L209.799 112.179L207.334 113.934L204.011 109.266L199.247 112.658Z" fill="black"/>
<path d="M204.882 130.983C204.356 129.236 204.419 127.732 205.069 126.471C205.719 125.21 206.897 124.323 208.601 123.811L214.868 121.925L216.024 125.767L209.87 127.618C209.002 127.88 208.431 128.223 208.156 128.649C207.893 129.071 207.841 129.548 208.001 130.08C208.164 130.623 208.471 130.992 208.92 131.188C209.384 131.392 210.05 131.363 210.918 131.102L217.072 129.251L218.208 133.028L211.94 134.913C210.236 135.426 208.765 135.336 207.527 134.643C206.289 133.95 205.408 132.73 204.882 130.983Z" fill="black"/>
<path d="M207.194 138.867L219.077 138.23L219.383 143.951C219.443 145.06 219.313 146.026 218.994 146.849C218.675 147.683 218.188 148.339 217.533 148.817C216.889 149.294 216.108 149.557 215.192 149.606C214.275 149.655 213.471 149.477 212.78 149.072C212.088 148.666 211.534 148.066 211.117 147.271C210.712 146.487 210.48 145.54 210.42 144.431L210.233 140.934L212.043 142.625L207.409 142.873L207.194 138.867ZM211.602 142.648L213.323 140.769L213.496 144.011C213.526 144.566 213.672 144.966 213.935 145.213C214.199 145.472 214.545 145.589 214.975 145.566C215.405 145.543 215.738 145.389 215.972 145.104C216.207 144.831 216.31 144.417 216.28 143.862L216.107 140.62L218.018 142.305L211.602 142.648Z" fill="black"/>
<path d="M211.99 152.098L219.373 151.992L218.963 156.563L211.717 155.145L211.99 152.098ZM207.147 153.199C207.205 152.545 207.451 152.026 207.883 151.644C208.327 151.263 208.826 151.097 209.379 151.147C209.943 151.197 210.399 151.449 210.745 151.901C211.091 152.353 211.235 152.906 211.176 153.561C211.117 154.227 210.877 154.746 210.456 155.118C210.035 155.501 209.542 155.667 208.978 155.617C208.425 155.567 207.964 155.315 207.595 154.861C207.236 154.419 207.087 153.865 207.147 153.199Z" fill="black"/>
<path d="M77.9444 162.255L84.7369 160.563L85.5054 163.649C85.6891 164.386 85.7087 165.072 85.5642 165.706C85.4262 166.338 85.1444 166.875 84.7187 167.318C84.2931 167.76 83.7342 168.068 83.042 168.24C82.3563 168.411 81.7184 168.402 81.1284 168.212C80.5449 168.021 80.0407 167.679 79.6159 167.187C79.1976 166.694 78.8966 166.078 78.7129 165.341L77.9444 162.255ZM79.6265 163.505L79.9841 164.941C80.0969 165.394 80.2785 165.765 80.5288 166.053C80.7873 166.346 81.0976 166.543 81.4597 166.645C81.8234 166.754 82.2187 166.755 82.6456 166.649C83.0791 166.541 83.4277 166.355 83.6915 166.09C83.9634 165.829 84.1415 165.51 84.2259 165.132C84.3184 164.759 84.3083 164.345 84.1955 163.893L83.8378 162.457L79.6265 163.505Z" fill="black"/>
<path d="M82.9645 177.311L83.919 176.873L84.0865 176.687L85.7955 175.903C86.0985 175.764 86.2918 175.562 86.3754 175.296C86.4618 175.037 86.4175 174.716 86.2425 174.334C86.1231 174.074 85.9626 173.836 85.7611 173.62C85.5684 173.408 85.3621 173.246 85.1422 173.134L85.8997 172.17C86.2098 172.351 86.5025 172.606 86.7777 172.934C87.053 173.263 87.2795 173.621 87.4572 174.009C87.7989 174.754 87.8884 175.413 87.7258 175.987C87.5631 176.56 87.1091 177.017 86.3637 177.359L83.5728 178.638L82.9645 177.311ZM82.2085 175.853C82.0335 175.471 81.9471 175.115 81.9494 174.784C81.9578 174.45 82.0407 174.159 82.1983 173.911C82.3559 173.663 82.574 173.475 82.8528 173.347C83.1437 173.214 83.4302 173.167 83.7123 173.206C83.9971 173.251 84.271 173.401 84.5338 173.654C84.8028 173.905 85.0511 174.279 85.2789 174.776L85.8747 176.076L85.0474 176.455L84.5225 175.31C84.3697 174.976 84.2096 174.771 84.0422 174.694C83.8775 174.623 83.7134 174.625 83.5498 174.699C83.3679 174.783 83.2544 174.919 83.2092 175.109C83.1729 175.301 83.2116 175.522 83.3255 175.77C83.4338 176.007 83.5856 176.194 83.7808 176.332C83.982 176.467 84.2112 176.527 84.4683 176.512L83.9137 177.03C83.5514 177.071 83.2259 176.993 82.9372 176.795C82.6486 176.598 82.4057 176.284 82.2085 175.853Z" fill="black"/>
<path d="M87.9107 186.149C87.6598 185.772 87.5236 185.386 87.5021 184.992C87.4805 184.598 87.5856 184.208 87.8174 183.822C88.0584 183.438 88.4399 183.073 88.9618 182.726C89.4894 182.375 89.9723 182.163 90.4107 182.088C90.849 182.012 91.2455 182.061 91.6002 182.234C91.955 182.406 92.2633 182.69 92.5252 183.084C92.8056 183.506 92.9593 183.948 92.9862 184.41C93.0225 184.875 92.933 185.318 92.7178 185.741C92.5063 186.17 92.1674 186.539 91.7009 186.849C91.2289 187.163 90.7544 187.334 90.2773 187.363C89.8039 187.397 89.3603 187.307 88.9464 187.094C88.5363 186.886 88.191 186.572 87.9107 186.149ZM84.6017 184.53L90.6989 180.479L91.5234 181.721L90.6072 182.329L89.2579 183.19L87.9888 184.153L85.465 185.829L84.6017 184.53ZM88.8274 185.216C88.9713 185.433 89.1486 185.591 89.3592 185.691C89.5735 185.797 89.8055 185.839 90.0551 185.817C90.314 185.797 90.5712 185.703 90.8266 185.533C91.0876 185.36 91.2747 185.159 91.3878 184.932C91.5047 184.71 91.5559 184.48 91.5415 184.242C91.5308 184.009 91.4535 183.784 91.3096 183.567C91.1658 183.351 90.9867 183.19 90.7724 183.084C90.558 182.978 90.3261 182.936 90.0764 182.958C89.8268 182.98 89.5714 183.077 89.3105 183.251C89.055 183.42 88.8661 183.618 88.7437 183.843C88.6268 184.065 88.5756 184.295 88.59 184.534C88.6044 184.772 88.6836 185 88.8274 185.216Z" fill="black"/>
<path d="M92.3945 192.117L97.536 187.367L99.694 189.703C100.21 190.261 100.557 190.853 100.735 191.478C100.918 192.098 100.929 192.705 100.769 193.298C100.609 193.891 100.267 194.429 99.7427 194.913C99.2237 195.393 98.6599 195.691 98.0514 195.809C97.4478 195.922 96.8414 195.865 96.2324 195.638C95.6282 195.406 95.0683 195.011 94.5525 194.453L92.3945 192.117ZM94.4707 192.405L95.4751 193.492C95.7918 193.835 96.1292 194.072 96.4872 194.204C96.8547 194.337 97.2217 194.36 97.5883 194.276C97.9594 194.196 98.3066 194.007 98.6298 193.708C98.9578 193.405 99.1738 193.074 99.2776 192.715C99.3909 192.356 99.3936 191.991 99.2856 191.619C99.1871 191.247 98.9795 190.889 98.6628 190.547L97.6584 189.459L94.4707 192.405Z" fill="black"/>
<path d="M104.013 203.199L104.667 202.377L104.732 202.135L105.903 200.665C106.111 200.404 106.192 200.136 106.146 199.861C106.106 199.591 105.922 199.325 105.593 199.063C105.369 198.884 105.119 198.744 104.841 198.643C104.574 198.54 104.316 198.489 104.07 198.488L104.311 197.287C104.669 197.308 105.045 197.403 105.439 197.572C105.833 197.741 106.197 197.958 106.53 198.224C107.172 198.735 107.549 199.283 107.663 199.867C107.777 200.452 107.578 201.065 107.067 201.707L105.155 204.108L104.013 203.199ZM102.68 202.239C102.351 201.978 102.113 201.699 101.966 201.402C101.823 201.101 101.765 200.804 101.794 200.511C101.822 200.218 101.932 199.952 102.123 199.712C102.322 199.462 102.557 199.291 102.826 199.198C103.101 199.11 103.413 199.12 103.762 199.228C104.115 199.33 104.505 199.551 104.933 199.892L106.052 200.783L105.485 201.495L104.499 200.71C104.212 200.481 103.977 200.37 103.792 200.377C103.613 200.388 103.468 200.464 103.356 200.604C103.231 200.761 103.191 200.934 103.237 201.123C103.291 201.312 103.425 201.491 103.639 201.661C103.842 201.823 104.062 201.922 104.299 201.956C104.539 201.986 104.771 201.936 104.993 201.807L104.733 202.519C104.428 202.72 104.102 202.797 103.755 202.751C103.409 202.705 103.05 202.534 102.68 202.239Z" fill="black"/>
<path d="M112.108 208.857C111.72 208.622 111.433 208.331 111.246 207.984C111.059 207.636 110.989 207.239 111.034 206.791C111.089 206.34 111.279 205.847 111.604 205.312C111.933 204.77 112.279 204.372 112.644 204.118C113.009 203.864 113.389 203.739 113.783 203.745C114.178 203.75 114.577 203.876 114.982 204.121C115.415 204.384 115.742 204.719 115.963 205.126C116.193 205.531 116.301 205.97 116.286 206.445C116.276 206.922 116.127 207.401 115.836 207.879C115.542 208.364 115.185 208.721 114.766 208.949C114.352 209.182 113.912 209.289 113.447 209.272C112.988 209.258 112.541 209.12 112.108 208.857ZM108.424 208.798L112.222 202.54L113.496 203.313L112.925 204.253L112.069 205.606L111.33 207.017L109.758 209.607L108.424 208.798ZM112.541 207.623C112.763 207.758 112.991 207.826 113.224 207.827C113.463 207.832 113.691 207.771 113.908 207.645C114.134 207.517 114.326 207.322 114.485 207.06C114.648 206.792 114.732 206.531 114.738 206.277C114.749 206.027 114.698 205.797 114.584 205.587C114.475 205.381 114.309 205.21 114.087 205.075C113.865 204.94 113.634 204.871 113.395 204.866C113.156 204.861 112.928 204.922 112.712 205.048C112.495 205.174 112.305 205.371 112.143 205.638C111.984 205.901 111.897 206.16 111.882 206.416C111.87 206.666 111.922 206.896 112.036 207.106C112.151 207.316 112.319 207.488 112.541 207.623Z" fill="black"/>
<path d="M124.089 214.792C123.617 214.609 123.231 214.339 122.934 213.981C122.638 213.617 122.453 213.199 122.378 212.727C122.309 212.257 122.376 211.761 122.578 211.239C122.782 210.71 123.067 210.295 123.434 209.993C123.806 209.694 124.223 209.512 124.684 209.447C125.145 209.382 125.612 209.441 126.085 209.624C126.508 209.787 126.842 210.023 127.087 210.332C127.332 210.641 127.468 211.019 127.496 211.466C127.524 211.912 127.423 212.431 127.195 213.022C126.97 213.606 126.698 214.059 126.381 214.38C126.067 214.694 125.715 214.884 125.326 214.948C124.943 215.014 124.531 214.962 124.089 214.792ZM124.802 213.695C125.038 213.786 125.275 213.813 125.511 213.776C125.747 213.738 125.96 213.638 126.151 213.476C126.351 213.31 126.506 213.084 126.617 212.798C126.73 212.506 126.767 212.234 126.728 211.984C126.695 211.735 126.604 211.518 126.454 211.331C126.305 211.145 126.112 211.006 125.876 210.915C125.633 210.821 125.394 210.793 125.158 210.831C124.922 210.868 124.705 210.967 124.508 211.126C124.316 211.288 124.164 211.516 124.051 211.808C123.941 212.094 123.901 212.364 123.931 212.619C123.97 212.87 124.064 213.088 124.214 213.275C124.364 213.461 124.56 213.601 124.802 213.695ZM125.685 215.322L126.082 214.296L126.686 212.814L127.165 211.295L128.293 208.375L129.748 208.937L127.075 215.859L125.685 215.322Z" fill="black"/>
<path d="M132.257 213.184L133.536 211.048L133.504 211.984C133.228 211.907 133.022 211.764 132.887 211.553C132.76 211.338 132.736 211.089 132.815 210.806C132.892 210.53 133.043 210.333 133.269 210.216C133.497 210.093 133.743 210.068 134.007 210.141C134.276 210.216 134.474 210.365 134.599 210.586C134.726 210.802 134.751 211.047 134.674 211.323C134.651 211.407 134.621 211.489 134.585 211.569C134.557 211.644 134.509 211.731 134.44 211.829C134.378 211.929 134.283 212.059 134.156 212.217L133.211 213.449L132.257 213.184Z" fill="black"/>
<path d="M135.645 218.403L139.874 212.011L141.452 212.275L143.388 219.694L141.711 219.414L140.203 212.898L140.834 213.003L137.283 218.676L135.645 218.403ZM137.431 217.18L138.057 216.037L141.608 216.629L141.84 217.915L137.431 217.18Z" fill="black"/>
<path d="M149.126 219.994L146.924 214.589L148.534 214.607L150.364 219.257L149.564 219.248L151.564 214.64L153.064 214.656L150.736 220.011L149.126 219.994Z" fill="black"/>
<path d="M156.322 219.755L155.734 214.407L157.285 214.237L157.873 219.585L156.322 219.755ZM156.428 213.576C156.143 213.608 155.902 213.55 155.705 213.404C155.508 213.258 155.396 213.063 155.369 212.818C155.342 212.572 155.409 212.357 155.569 212.172C155.73 211.986 155.953 211.878 156.238 211.847C156.523 211.816 156.764 211.87 156.96 212.009C157.156 212.142 157.267 212.331 157.294 212.576C157.322 212.834 157.256 213.06 157.096 213.251C156.942 213.436 156.719 213.544 156.428 213.576Z" fill="black"/>
<path d="M164.615 212.687C165.027 212.575 165.417 212.559 165.784 212.638C166.155 212.71 166.481 212.891 166.76 213.181C167.038 213.465 167.248 213.871 167.392 214.398L168.2 217.37L166.695 217.78L165.949 215.039C165.836 214.621 165.658 214.338 165.418 214.189C165.183 214.038 164.899 214.009 164.564 214.1C164.326 214.164 164.125 214.274 163.96 214.43C163.799 214.577 163.693 214.768 163.639 215.004C163.592 215.238 163.613 215.516 163.7 215.837L164.398 218.404L162.893 218.813L161.481 213.622L162.919 213.231L163.31 214.669L162.921 214.308C163.014 213.91 163.208 213.57 163.505 213.289C163.801 213.008 164.172 212.807 164.615 212.687Z" fill="black"/>
<path d="M174.935 214.567C174.417 214.827 173.902 214.955 173.393 214.95C172.88 214.939 172.413 214.804 171.992 214.545C171.577 214.283 171.25 213.914 171.011 213.438C170.769 212.955 170.668 212.472 170.709 211.989C170.753 211.497 170.925 211.045 171.225 210.633C171.523 210.215 171.931 209.876 172.449 209.616C172.955 209.362 173.45 209.248 173.933 209.274C174.413 209.294 174.841 209.456 175.217 209.759L174.428 210.883C174.189 210.719 173.947 210.632 173.703 210.62C173.464 210.606 173.235 210.654 173.014 210.764C172.776 210.884 172.588 211.045 172.452 211.248C172.315 211.451 172.239 211.68 172.225 211.933C172.216 212.183 172.282 212.449 172.423 212.729C172.563 213.009 172.737 213.22 172.943 213.363C173.155 213.503 173.383 213.578 173.627 213.59C173.872 213.601 174.113 213.547 174.352 213.428C174.572 213.317 174.749 213.165 174.883 212.971C175.02 212.768 175.092 212.519 175.101 212.223L176.478 212.27C176.494 212.747 176.368 213.187 176.1 213.59C175.83 213.987 175.441 214.313 174.935 214.567Z" fill="black"/>
<path d="M180.339 211.224L177.166 206.879L178.426 205.959L181.598 210.304L180.339 211.224ZM177.354 205.813C177.122 205.982 176.884 206.053 176.641 206.024C176.397 205.996 176.203 205.882 176.057 205.683C175.912 205.484 175.862 205.264 175.91 205.023C175.957 204.782 176.096 204.577 176.327 204.408C176.559 204.239 176.795 204.166 177.034 204.189C177.27 204.207 177.461 204.315 177.606 204.515C177.76 204.724 177.815 204.953 177.771 205.199C177.73 205.436 177.59 205.64 177.354 205.813Z" fill="black"/>
</svg>
