<svg width="170" height="170" viewBox="0 0 170 170" fill="none" xmlns="http://www.w3.org/2000/svg">
<g clip-path="url(#clip0_20208_354)">
<path d="M134.799 148.918C99.0417 176.325 47.8368 169.556 20.4294 133.799C-6.97792 98.0417 -0.209063 46.8368 35.5481 19.4295C71.3052 -7.97789 122.51 -1.20903 149.918 34.5481C177.325 70.3053 170.556 121.51 134.799 148.918Z" fill="#EBF479"/>
<path fill-rule="evenodd" clip-rule="evenodd" d="M136.016 150.505C99.3817 178.584 46.9214 171.649 18.8421 135.016C-9.23723 98.3817 -2.30242 45.9214 34.3314 17.8421C70.9652 -10.2372 123.426 -3.30242 151.505 33.3314C179.584 69.9652 172.649 122.426 136.016 150.505ZM20.4294 133.799C47.8368 169.556 99.0417 176.325 134.799 148.918C170.556 121.51 177.325 70.3052 149.918 34.5481C122.51 -1.20907 71.3052 -7.97793 35.5481 19.4294C-0.209072 46.8368 -6.97793 98.0417 20.4294 133.799Z" fill="black"/>
<path d="M64.8997 102.215C76.3201 105.374 90.0591 83.3381 77.0845 65.7439C67.788 53.1374 45.1253 50.7799 32.7004 52.2246C32.6818 51.3917 31.7808 49.5196 28.3254 48.6948C26.5482 48.2705 23.8242 49.5742 21.0945 52.378C17.19 56.3885 13.2738 63.4682 12.1002 72.95C11.9782 73.9355 11.908 74.8551 11.8844 75.7114C11.6366 84.7163 16.5422 86.7298 20.5477 84.9198C23.3203 87.4656 27.9433 89.1056 30.3329 88.5526C28.268 91.738 29.5634 97.2402 34.736 101.071C38.8742 104.137 43.8376 103.244 45.8104 102.038C49.7406 103.789 54.1603 103.185 55.7236 102.405C59.5081 103.308 62.182 103.582 64.8997 102.215Z" fill="#EDFF00"/>
<path fill-rule="evenodd" clip-rule="evenodd" d="M55.9504 54.2016C47.6294 52.2312 38.9162 52.0052 32.7581 52.7213C32.4914 52.7523 31.9521 52.9268 31.2177 53.3381C30.4959 53.7424 29.6176 54.3578 28.6757 55.2323C26.7935 56.9798 24.6613 59.7586 23.0204 63.9441C22.9196 64.2012 22.6295 64.3279 22.3724 64.2272C22.1153 64.1264 21.9886 63.8362 22.0894 63.5792C23.7839 59.2569 26.0005 56.3514 27.9953 54.4994C28.9918 53.5742 29.934 52.911 30.729 52.4657C31.2515 52.173 31.7257 51.966 32.1192 51.8449C31.8641 51.1117 30.9287 49.8303 28.2093 49.1811C27.4824 49.0076 26.4839 49.1753 25.2911 49.7729C24.1086 50.3653 22.7892 51.3541 21.4527 52.7268C17.6295 56.6538 13.7575 63.6303 12.5964 73.0115C12.4762 73.9826 12.4073 74.8862 12.3843 75.7251C12.2624 80.1526 13.4119 82.7224 14.9397 83.9859C16.2609 85.0786 17.9622 85.2731 19.6189 84.7428C18.5185 83.5468 17.9955 81.8579 17.7871 80.2411C17.5408 78.3309 17.7179 76.4061 18.0001 75.224C18.0643 74.9554 18.334 74.7896 18.6026 74.8537C18.8712 74.9179 19.0369 75.1876 18.9728 75.4562C18.7178 76.5246 18.5486 78.3273 18.7789 80.1132C19.0109 81.9131 19.633 83.5825 20.8531 84.5239C20.8644 84.5326 20.8753 84.5418 20.8858 84.5515C22.2154 85.7722 24.0044 86.7878 25.7558 87.4287C27.4216 88.0383 28.9749 88.2807 30.03 88.1033C30.7116 87.0835 31.6412 85.9616 32.8131 85.0972C30.6624 85.1518 28.1322 84.7811 25.1286 83.7115C24.8684 83.6189 24.7327 83.3329 24.8253 83.0727C24.9179 82.8126 25.2039 82.6768 25.464 82.7694C29.9898 84.381 33.3232 84.3244 35.8495 83.6818C38.0591 83.1197 39.6755 82.1074 40.9972 81.2797C41.1964 81.155 41.3888 81.0344 41.5756 80.9202C41.7781 80.7965 42.0397 80.8321 42.2017 81.0055C42.3638 81.1789 42.3816 81.4423 42.2444 81.636C41.5983 82.5477 41.0773 83.3832 40.7181 83.9905C40.5386 84.2939 40.3998 84.5399 40.3062 84.7093C40.2594 84.794 40.2239 84.8595 40.2004 84.9034L40.1741 84.9528L40.1678 84.9648L40.1663 84.9675L40.1661 84.968C39.7969 85.6763 39.5176 86.6249 39.4259 87.5446C39.3326 88.4805 39.4425 89.2915 39.7493 89.7884C39.8943 90.0234 39.8214 90.3315 39.5864 90.4765C39.3514 90.6216 39.0433 90.5487 38.8983 90.3137C38.421 89.5403 38.3292 88.4641 38.4308 87.4453C38.5142 86.6086 38.7342 85.7468 39.0443 85.0081C37.142 84.3373 35.5293 84.6475 34.1903 85.3952C32.7162 86.2182 31.5564 87.5843 30.7524 88.8246C28.89 91.6977 29.9736 96.9219 35.0336 100.67C37.0035 102.129 39.1707 102.648 41.0875 102.656C43.016 102.665 44.6554 102.158 45.5496 101.612C45.6814 101.531 45.8145 101.45 45.9489 101.369C47.8982 100.184 50.1087 98.8406 52.2194 96.1091C54.4782 93.1861 56.6465 88.6369 58.1606 80.9369C58.2139 80.666 58.4767 80.4895 58.7477 80.5428C59.0186 80.5961 59.1951 80.8589 59.1418 81.1299C57.6079 88.9303 55.3922 93.6387 53.0107 96.7206C50.9522 99.3845 48.7876 100.806 46.9284 101.943C48.5362 102.502 50.1885 102.695 51.6463 102.671C53.395 102.642 54.809 102.302 55.5002 101.957C55.6172 101.899 55.7465 101.837 55.8868 101.769C57.1643 101.154 59.3576 100.097 61.567 97.4576C64.0215 94.525 66.5234 89.5981 67.6946 81.0787C67.7322 80.8051 67.9845 80.6138 68.258 80.6514C68.5316 80.689 68.7229 80.9413 68.6853 81.2149C67.4948 89.8742 64.9359 94.9906 62.3338 98.0994C60.45 100.35 58.5581 101.528 57.2155 102.226C60.2476 102.852 62.4504 102.887 64.6751 101.768C65.6916 101.257 66.7926 100.24 67.8976 98.8267C68.9966 97.4213 70.0734 95.6587 71.0511 93.7019C73.0083 89.7851 74.5453 85.1384 75.0783 81.1128C75.1146 80.8391 75.3659 80.6465 75.6396 80.6828C75.9134 80.719 76.1059 80.9703 76.0697 81.2441C75.5196 85.3985 73.9431 90.1516 71.9457 94.1489C70.9462 96.1492 69.8354 97.9721 68.6853 99.4427C67.8884 100.462 67.0597 101.328 66.2222 101.966C68.5385 102.236 70.9366 101.48 73.1581 99.9146C75.7636 98.0785 78.0932 95.1476 79.6831 91.5594C82.8603 84.3888 83.0496 74.6753 76.6821 66.0406C72.136 59.876 64.2824 56.1746 55.9504 54.2016ZM64.9523 102.746C67.9315 103.502 71.0127 102.65 73.7342 100.732C76.5113 98.775 78.9468 95.6896 80.5974 91.9645C83.9011 84.5083 84.094 74.4067 77.4869 65.4471C72.7365 59.0053 64.6105 55.2247 56.1808 53.2285C47.9506 51.2796 39.3497 51.0119 33.1162 51.6753C32.7964 50.5237 31.5189 48.9431 28.4415 48.2084C27.3911 47.9577 26.139 48.2297 24.8432 48.8789C23.5369 49.5332 22.1295 50.5982 20.7362 52.0292C16.7504 56.1233 12.79 63.3062 11.604 72.8886C11.4802 73.8885 11.4087 74.824 11.3846 75.6976C11.2586 80.2751 12.438 83.2146 14.3024 84.7565C16.092 86.2366 18.394 86.3326 20.4517 85.5044C21.8623 86.7304 23.6631 87.7277 25.4121 88.3678C26.8223 88.8839 28.2509 89.1866 29.4433 89.158C27.9101 92.6876 29.5742 97.8705 34.4384 101.473C36.6067 103.079 38.9902 103.647 41.0829 103.656C43.0231 103.665 44.7441 103.195 45.8422 102.597C47.8179 103.428 49.8864 103.7 51.6629 103.671C53.3844 103.642 54.8796 103.33 55.778 102.931C59.4178 103.789 62.1671 104.081 64.9523 102.746ZM39.4963 84.1082C39.5889 83.9426 39.7101 83.7304 39.8574 83.4813C39.9539 83.3182 40.0617 83.1392 40.1801 82.9469C39.6706 83.2396 39.1117 83.5356 38.4973 83.8104C38.8235 83.8841 39.1565 83.9826 39.4963 84.1082Z" fill="black"/>
<path d="M89.4538 112.197C79.0072 106.605 84.2643 81.1746 105.795 77.3896C121.222 74.6775 139.254 88.6061 147.252 98.224C147.84 97.6339 149.783 96.9003 152.854 98.6871C154.433 99.6061 155.506 102.429 155.547 106.342C155.607 111.939 153.557 119.766 147.865 127.439C147.274 128.237 146.69 128.951 146.116 129.587C140.083 136.277 135.143 134.35 133.492 130.276C129.729 130.206 125.251 128.204 123.902 126.155C123.199 129.886 118.466 132.975 112.078 132.18C106.968 131.543 103.991 127.473 103.394 125.239C99.3415 123.795 96.5586 120.309 95.9656 118.665C92.6027 116.708 90.4781 115.062 89.4538 112.197Z" fill="#5B56F3"/>
<path fill-rule="evenodd" clip-rule="evenodd" d="M129.057 83.6147C136.44 87.9291 142.903 93.7769 146.867 98.5437C147.039 98.7501 147.309 99.2485 147.557 100.053C147.8 100.844 148.012 101.895 148.09 103.178C148.247 105.741 147.873 109.224 146.173 113.386C146.069 113.642 146.192 113.934 146.447 114.038C146.703 114.142 146.995 114.02 147.099 113.764C148.855 109.466 149.254 105.834 149.088 103.117C149.005 101.76 148.781 100.629 148.512 99.7585C148.336 99.1862 148.136 98.7092 147.934 98.3501C148.625 97.9953 150.186 97.713 152.602 99.1193C153.248 99.4951 153.855 100.305 154.307 101.561C154.754 102.806 155.027 104.432 155.047 106.347C155.106 111.828 153.095 119.549 147.464 127.141C146.881 127.927 146.307 128.629 145.745 129.252C142.779 132.541 140.174 133.608 138.196 133.469C136.486 133.349 135.12 132.316 134.287 130.789C135.908 130.682 137.452 129.82 138.718 128.794C140.215 127.581 141.414 126.065 142.026 125.015C142.164 124.776 142.084 124.47 141.845 124.331C141.606 124.192 141.3 124.273 141.161 124.512C140.609 125.461 139.487 126.883 138.089 128.017C136.679 129.16 135.077 129.939 133.544 129.779C133.53 129.777 133.516 129.777 133.502 129.776C131.697 129.743 129.701 129.244 127.991 128.499C126.365 127.791 125.073 126.895 124.432 126.039C124.642 124.83 124.743 123.377 124.491 121.943C126.01 123.466 128.097 124.943 131.01 126.241C131.262 126.354 131.558 126.24 131.67 125.988C131.782 125.736 131.669 125.44 131.417 125.328C127.029 123.372 124.655 121.031 123.269 118.823C122.058 116.892 121.586 115.044 121.2 113.533C121.142 113.305 121.086 113.085 121.029 112.874C120.968 112.644 120.754 112.49 120.517 112.503C120.28 112.517 120.086 112.695 120.052 112.93C119.89 114.036 119.691 115 119.532 115.688C119.453 116.031 119.383 116.305 119.334 116.492C119.31 116.586 119.29 116.658 119.277 116.706L119.262 116.76L119.258 116.773L119.257 116.776L119.257 116.776C119.036 117.544 118.584 118.423 118.015 119.152C117.437 119.894 116.798 120.405 116.233 120.553C115.966 120.623 115.806 120.897 115.876 121.164C115.947 121.431 116.22 121.591 116.487 121.521C117.366 121.29 118.175 120.574 118.804 119.767C119.321 119.103 119.756 118.328 120.042 117.579C121.881 118.406 122.835 119.743 123.288 121.208C123.788 122.821 123.685 124.61 123.411 126.062C122.777 129.427 118.388 132.461 112.14 131.683C109.707 131.381 107.78 130.261 106.387 128.945C104.985 127.621 104.148 126.123 103.878 125.11C103.838 124.961 103.797 124.811 103.756 124.659C103.162 122.457 102.489 119.959 102.846 116.525C103.227 112.851 104.796 108.062 109.012 101.444C109.161 101.211 109.092 100.902 108.859 100.753C108.626 100.605 108.317 100.673 108.169 100.906C103.898 107.611 102.253 112.548 101.851 116.422C101.503 119.771 102.089 122.293 102.651 124.399C101.101 123.695 99.772 122.694 98.7334 121.671C97.4875 120.443 96.6981 119.222 96.436 118.495C96.3916 118.372 96.3409 118.238 96.286 118.092C95.7857 116.766 94.9268 114.488 95.1485 111.053C95.3949 107.236 96.983 101.944 102.013 94.9685C102.174 94.7446 102.124 94.4321 101.9 94.2705C101.676 94.109 101.363 94.1597 101.202 94.3837C96.0893 101.473 94.4118 106.943 94.1506 110.988C93.9615 113.917 94.5188 116.075 95.0085 117.507C92.3817 115.868 90.7631 114.374 89.9246 112.029C89.5415 110.957 89.4464 109.461 89.6213 107.676C89.7953 105.901 90.2319 103.882 90.8741 101.791C92.1595 97.6051 94.2527 93.181 96.6441 89.8992C96.8068 89.676 96.7577 89.3632 96.5345 89.2006C96.3113 89.038 95.9986 89.0871 95.8359 89.3102C93.368 92.6971 91.23 97.2255 89.9181 101.497C89.2617 103.635 88.8081 105.721 88.6261 107.579C88.4999 108.866 88.502 110.065 88.6685 111.104C86.8052 109.702 85.5908 107.5 85.0627 104.834C84.4433 101.708 84.7789 97.9789 86.1036 94.2845C88.7507 86.9017 95.315 79.7396 105.882 77.882C113.425 76.5558 121.664 79.2947 129.057 83.6147ZM89.0493 112.545C86.3712 111.037 84.7287 108.295 84.0817 105.029C83.4215 101.696 83.7871 97.7823 85.1623 93.947C87.9148 86.2702 94.7443 78.8246 105.708 76.8971C113.592 75.5113 122.082 78.3806 129.562 82.7514C136.864 87.0186 143.275 92.7587 147.33 97.5395C148.356 96.9265 150.371 96.6636 153.105 98.255C154.039 98.7981 154.757 99.8589 155.248 101.223C155.742 102.598 156.026 104.34 156.047 106.337C156.108 112.05 154.019 119.982 148.267 127.737C147.667 128.546 147.073 129.273 146.488 129.922C143.421 133.323 140.539 134.637 138.126 134.467C135.809 134.303 134.077 132.785 133.158 130.766C131.291 130.68 129.3 130.159 127.592 129.416C126.215 128.817 124.972 128.05 124.129 127.207C122.803 130.82 118.023 133.424 112.016 132.676C109.339 132.343 107.222 131.109 105.7 129.672C104.289 128.34 103.368 126.812 102.986 125.622C100.982 124.861 99.2973 123.63 98.0316 122.383C96.8051 121.175 95.9383 119.917 95.5628 119.009C92.3359 117.119 90.1448 115.433 89.0493 112.545ZM120.335 116.616C120.382 116.432 120.441 116.195 120.506 115.913C120.549 115.728 120.595 115.524 120.641 115.303C120.808 115.867 121.009 116.467 121.264 117.089C120.977 116.918 120.668 116.759 120.335 116.616Z" fill="black"/>
<path fill-rule="evenodd" clip-rule="evenodd" d="M98.7831 41.0017C99.1771 41.1428 99.4416 41.5143 99.446 41.9328C99.5094 47.9924 100.293 52.9489 104.793 55.6485C106.616 56.7418 108.909 56.8682 111.166 56.3854C113.421 55.9028 115.5 54.8389 116.788 53.7486C117.14 53.4504 117.651 53.4321 118.024 53.7044C118.397 53.9767 118.535 54.4687 118.358 54.8951C117.614 56.6874 116.674 59.1439 116.173 61.5893C115.662 64.0803 115.657 66.3271 116.518 67.8593C117.414 69.4546 118.781 70.3842 120.139 70.8507C121.531 71.3292 122.812 71.2876 123.456 71.0654C123.978 70.8853 124.547 71.1625 124.727 71.6846C124.907 72.2067 124.63 72.776 124.108 72.9561C122.946 73.3572 121.195 73.3284 119.489 72.7422C117.748 72.144 115.95 70.9313 114.774 68.8393C113.542 66.6468 113.682 63.781 114.213 61.1875C114.51 59.7395 114.946 58.3033 115.403 57.0012C114.243 57.5783 112.937 58.0516 111.584 58.3411C109.031 58.8872 106.17 58.8064 103.764 57.3636C99.0737 54.5499 97.8399 49.7562 97.535 44.6885C97.3674 44.9055 97.1994 45.124 97.0306 45.3435C96.8853 45.5324 96.7394 45.7222 96.5927 45.9123C95.7154 47.0494 94.8131 48.1965 93.8757 49.2206C92.0322 51.2345 89.8746 52.9769 87.2373 53.0886C83.8933 53.2303 81.3594 51.6919 79.3703 49.6886C78.0382 48.347 76.9034 46.7457 75.9059 45.2468C75.567 46.5994 75.1312 47.9462 74.6086 49.146C74.1918 50.103 73.7082 50.9934 73.1557 51.7251C72.6093 52.4487 71.9495 53.0782 71.1608 53.4206C70.3983 53.7516 69.4882 53.8371 68.6377 53.8242C67.7691 53.8111 66.8657 53.6928 66.0612 53.5473C65.2533 53.401 64.5233 53.2231 63.9962 53.0822C63.732 53.0116 63.5171 52.9498 63.367 52.9053C63.292 52.8831 63.233 52.8651 63.1921 52.8524L63.1444 52.8376L63.1311 52.8334L63.1272 52.8321L63.1259 52.8317L63.1254 52.8316C63.1252 52.8315 63.1251 52.8315 63.4301 51.8791L63.1251 52.8315C62.5991 52.663 62.3093 52.1001 62.4777 51.5741C62.6461 51.0482 63.2089 50.7584 63.7348 50.9267M63.7351 50.9267L63.7364 50.9272L63.7449 50.9298L63.7826 50.9416C63.8167 50.9521 63.8684 50.9679 63.9358 50.9879C64.0706 51.0279 64.268 51.0847 64.5126 51.1501C65.0033 51.2812 65.6779 51.4454 66.4174 51.5792C67.1605 51.7137 67.9473 51.8135 68.6679 51.8244C69.4064 51.8356 69.9842 51.751 70.3644 51.586C70.7174 51.4327 71.1253 51.0951 71.5597 50.5198C71.988 49.9526 72.3982 49.2125 72.775 48.3474C73.5287 46.617 74.1027 44.4934 74.4334 42.5238C74.5013 42.1193 74.8093 41.7973 75.2103 41.7115C75.6114 41.6256 76.0242 41.7934 76.2517 42.1347C76.4746 42.4692 76.6981 42.8101 76.9235 43.1541C78.0843 44.925 79.2993 46.7786 80.7895 48.2795C82.5366 50.039 84.557 51.2004 87.1527 51.0904C88.9398 51.0147 90.6189 49.8164 92.4004 47.8702C93.2755 46.9142 94.1328 45.8265 95.0092 44.6906C95.1514 44.5062 95.2943 44.3204 95.4379 44.1337C96.1699 43.1817 96.9179 42.2089 97.6799 41.3005C97.9489 40.9799 98.389 40.8607 98.7831 41.0017" fill="black"/>
<path d="M38.9755 46.7824L29.9256 39.0552L33.7341 34.5949C34.5951 33.5865 35.5384 32.857 36.564 32.4063C37.581 31.9484 38.6096 31.7909 39.6498 31.934C40.6901 32.0771 41.6756 32.546 42.6065 33.3408C43.5459 34.143 44.1721 35.0502 44.485 36.0626C44.7893 37.0675 44.7993 38.1118 44.5149 39.1953C44.222 40.2715 43.6449 41.3138 42.7839 42.3222L38.9755 46.7824ZM39.2018 41.7002L40.2947 40.4203C40.6627 39.9893 40.9009 39.5445 41.0095 39.0858C41.1253 38.6184 41.1011 38.1581 40.9368 37.7048C40.7638 37.2442 40.4446 36.8152 39.9792 36.4178C39.5224 36.0277 39.0573 35.787 38.5838 35.6957C38.1104 35.6044 37.6519 35.6526 37.2085 35.8403C36.7725 36.0194 36.3705 36.3244 36.0025 36.7554L34.9096 38.0353L39.2018 41.7002Z" fill="black"/>
<path d="M46.6091 37.5822L44.5472 24.7596L47.8644 22.6261L58.6767 29.8209L55.188 32.0647L46.5494 25.7356L47.8649 24.8896L50.0406 35.3752L46.6091 37.5822ZM48.0894 34.1642L47.384 31.1817L51.988 28.2207L54.4092 30.0996L48.0894 34.1642Z" fill="black"/>
<path d="M58.6756 30.1024L54.9121 18.8132L60.347 17.0013C61.4006 16.6501 62.3665 16.5192 63.2446 16.6088C64.1334 16.6948 64.895 16.9904 65.5294 17.4957C66.1601 17.9903 66.6207 18.673 66.911 19.5438C67.2014 20.4147 67.2426 21.2372 67.0348 22.0114C66.827 22.7855 66.3951 23.479 65.7393 24.0919C65.0906 24.6904 64.2395 25.1653 63.1858 25.5166L59.8636 26.6242L61.0139 24.4308L62.4817 28.8335L58.6756 30.1024ZM61.1537 24.8501L58.885 23.689L61.9654 22.6621C62.4922 22.4864 62.8398 22.2391 63.0083 21.9201C63.1874 21.5976 63.2089 21.232 63.0727 20.8235C62.9365 20.4149 62.7 20.1354 62.3631 19.9849C62.0369 19.8308 61.6104 19.8415 61.0836 20.0172L58.0033 21.0441L59.1214 18.7539L61.1537 24.8501Z" fill="black"/>
<path d="M70.3921 26.3119L69.2733 14.4646L75.1123 13.9132C76.4324 13.7885 77.6175 13.9213 78.6675 14.3117C79.7165 14.6907 80.5646 15.2937 81.2118 16.1205C81.8591 16.9473 82.2403 17.97 82.3554 19.1885C82.4715 20.4184 82.2896 21.5057 81.8096 22.4503C81.3286 23.3837 80.6089 24.1404 79.6505 24.7204C78.691 25.2891 77.5513 25.6358 76.2311 25.7605L70.3921 26.3119ZM74.0922 22.8205L75.7678 22.6623C76.3319 22.609 76.8126 22.4555 77.2099 22.2017C77.6184 21.9468 77.9214 21.5994 78.1189 21.1596C78.3154 20.7085 78.3848 20.1782 78.3273 19.569C78.2708 18.9709 78.1044 18.4744 77.828 18.0793C77.5516 17.6842 77.189 17.3997 76.74 17.2258C76.3022 17.0509 75.8013 16.99 75.2371 17.0433L73.5616 17.2015L74.0922 22.8205Z" fill="black"/>
<path d="M82.8204 25.0445L89.3439 13.8144L93.2622 14.2636L97.0751 26.6786L92.9541 26.2062L90.2755 15.8377L91.8294 16.0158L86.8739 25.5092L82.8204 25.0445ZM86.1305 23.3364L87.473 20.5813L92.9114 21.2048L93.5956 24.1921L86.1305 23.3364Z" fill="black"/>
<path d="M97.0435 26.8028L100.564 15.4354L106.037 17.1303C107.097 17.4588 107.959 17.9154 108.62 18.4998C109.292 19.0877 109.739 19.7717 109.96 20.5521C110.184 21.3216 110.161 22.1448 109.889 23.0217C109.617 23.8986 109.172 24.591 108.552 25.099C107.932 25.607 107.177 25.9189 106.286 26.0348C105.41 26.1432 104.442 26.0331 103.381 25.7045L100.036 24.6685L102.249 23.5564L100.876 27.9897L97.0435 26.8028ZM102.118 23.9786L100.951 21.713L104.053 22.6735C104.583 22.8378 105.01 22.8394 105.333 22.6784C105.666 22.5207 105.897 22.2361 106.024 21.8247C106.152 21.4133 106.122 21.0483 105.936 20.7297C105.761 20.4144 105.408 20.1746 104.878 20.0103L101.776 19.0498L104.019 17.8402L102.118 23.9786Z" fill="black"/>
<path d="M114.307 32.9535L121.092 23.1776L123.802 25.0581L123.282 34.1546L121.858 33.1658L130.086 29.4202L132.796 31.3007L126.038 41.096L123.035 39.0119L126.652 33.7415L127.127 34.071L121.495 36.6393L120.043 35.6312L120.368 29.3794L120.954 29.7865L117.31 35.0376L114.307 32.9535Z" fill="black"/>
<path d="M135.193 40.1009L138.726 44.0568L136.57 45.9819L133.037 42.026L135.193 40.1009ZM132.052 43.2707L136.015 47.7084L133.759 49.7241L127.168 42.3448L136.043 34.4178L142.487 41.6323L140.23 43.648L136.414 39.3751L132.052 43.2707Z" fill="black"/>
<path d="M139.671 60.8636C138.956 59.1848 138.852 57.6831 139.36 56.3583C139.868 55.0335 140.94 54.0226 142.577 53.3255L148.599 50.7614L150.171 54.4526L144.258 56.9702C143.424 57.3254 142.894 57.7297 142.668 58.183C142.453 58.632 142.454 59.1119 142.672 59.6228C142.894 60.1442 143.239 60.4776 143.707 60.623C144.191 60.7745 144.849 60.6726 145.684 60.3174L151.596 57.7998L153.141 61.4285L147.119 63.9927C145.482 64.6898 144.01 64.7623 142.703 64.2101C141.397 63.6579 140.386 62.5424 139.671 60.8636Z" fill="black"/>
<path d="M142.837 68.4447L154.578 66.5035L155.512 72.1558C155.694 73.2516 155.671 74.226 155.444 75.0791C155.22 75.9433 154.808 76.6489 154.209 77.1959C153.621 77.7411 152.875 78.0885 151.969 78.2383C151.063 78.388 150.245 78.2994 149.513 77.9724C148.781 77.6454 148.164 77.1098 147.662 76.3658C147.173 75.631 146.838 74.7158 146.657 73.62L146.085 70.1649L148.07 71.6459L143.492 72.403L142.837 68.4447ZM147.634 71.718L149.138 69.6602L149.668 72.8637C149.758 73.4116 149.948 73.7938 150.236 74.0103C150.527 74.238 150.884 74.3167 151.309 74.2465C151.734 74.1762 152.047 73.9866 152.249 73.6775C152.452 73.3797 152.509 72.9568 152.418 72.4089L151.889 69.2054L153.974 70.6698L147.634 71.718Z" fill="black"/>
<path d="M149.061 81.0669L156.388 80.1483L156.484 84.7373L149.126 84.1262L149.061 81.0669ZM144.369 82.6955C144.355 82.0383 144.542 81.4959 144.93 81.0684C145.329 80.6406 145.806 80.4209 146.361 80.4092C146.928 80.3974 147.408 80.597 147.802 81.0082C148.196 81.4194 148.4 81.9536 148.414 82.6108C148.428 83.2793 148.246 83.8215 147.87 84.2375C147.493 84.6648 147.022 84.8844 146.455 84.8963C145.9 84.9079 145.414 84.7083 144.997 84.2976C144.592 83.898 144.383 83.364 144.369 82.6955Z" fill="black"/>
<path d="M16.9498 105.926L23.5146 103.496L24.6183 106.479C24.8821 107.191 24.9771 107.871 24.9033 108.516C24.8357 109.16 24.6148 109.725 24.2405 110.212C23.8662 110.699 23.3446 111.066 22.6756 111.313C22.0128 111.559 21.3778 111.62 20.7705 111.496C20.1694 111.37 19.6307 111.086 19.1543 110.644C18.6842 110.2 18.3172 109.621 18.0534 108.908L16.9498 105.926ZM18.7593 106.984L19.273 108.372C19.435 108.809 19.6562 109.157 19.9368 109.416C20.2259 109.679 20.5561 109.841 20.9272 109.903C21.3007 109.971 21.6937 109.928 22.1064 109.775C22.5253 109.62 22.8512 109.397 23.0842 109.104C23.3258 108.816 23.4677 108.479 23.51 108.094C23.5608 107.712 23.5052 107.303 23.3432 106.865L22.8296 105.477L18.7593 106.984Z" fill="black"/>
<path d="M23.5976 120.337L24.4981 119.797L24.6439 119.593L26.2563 118.627C26.5422 118.455 26.7121 118.233 26.7659 117.96C26.8231 117.692 26.7438 117.378 26.5278 117.018C26.3804 116.772 26.1947 116.553 25.9706 116.361C25.7557 116.171 25.5328 116.033 25.3019 115.946L25.9488 114.905C26.2769 115.05 26.5958 115.271 26.9055 115.567C27.2153 115.863 27.4799 116.195 27.6993 116.56C28.1209 117.264 28.2825 117.909 28.184 118.497C28.0855 119.084 27.6846 119.589 26.9813 120.011L24.3483 121.589L23.5976 120.337ZM22.6856 118.972C22.4696 118.612 22.3445 118.267 22.3104 117.938C22.2819 117.605 22.3323 117.307 22.4615 117.042C22.5908 116.778 22.787 116.568 23.05 116.41C23.3244 116.245 23.604 116.167 23.8887 116.175C24.1768 116.189 24.4654 116.307 24.7546 116.53C25.0496 116.75 25.3376 117.094 25.6187 117.563L26.354 118.79L25.5736 119.257L24.9256 118.177C24.7371 117.862 24.5553 117.676 24.3804 117.618C24.209 117.565 24.046 117.585 23.8916 117.677C23.7201 117.78 23.6223 117.928 23.5982 118.122C23.5833 118.317 23.6461 118.532 23.7867 118.766C23.9204 118.989 24.0918 119.159 24.301 119.274C24.5159 119.386 24.7503 119.421 25.0041 119.377L24.5101 119.953C24.1545 120.034 23.8223 119.993 23.5137 119.828C23.205 119.663 22.929 119.378 22.6856 118.972Z" fill="black"/>
<path d="M29.4871 128.577C29.1962 128.23 29.0183 127.861 28.9535 127.472C28.8887 127.083 28.9502 126.684 29.1381 126.275C29.3353 125.866 29.6742 125.461 30.1548 125.059C30.6405 124.652 31.0971 124.388 31.5245 124.265C31.9519 124.142 32.3514 124.147 32.7229 124.279C33.0945 124.412 33.4322 124.659 33.7359 125.022C34.0611 125.411 34.2625 125.833 34.3402 126.29C34.4274 126.747 34.3873 127.198 34.22 127.642C34.057 128.092 33.7608 128.496 33.3313 128.855C32.8967 129.219 32.4439 129.441 31.9729 129.522C31.5062 129.609 31.0554 129.569 30.6206 129.402C30.19 129.241 29.8122 128.966 29.4871 128.577ZM26.0199 127.332L31.6339 122.635L32.5901 123.777L31.7464 124.483L30.5001 125.487L29.3448 126.584L27.021 128.529L26.0199 127.332ZM30.2955 127.549C30.4623 127.748 30.656 127.886 30.8763 127.963C31.101 128.044 31.3362 128.06 31.5819 128.011C31.837 127.963 32.0822 127.84 32.3174 127.643C32.5577 127.442 32.7216 127.223 32.809 126.984C32.9007 126.751 32.9263 126.517 32.8857 126.281C32.8494 126.051 32.7478 125.836 32.581 125.637C32.4141 125.437 32.2184 125.297 31.9937 125.215C31.7691 125.134 31.5339 125.118 31.2881 125.167C31.0424 125.216 30.7994 125.341 30.5591 125.542C30.3239 125.739 30.1579 125.956 30.061 126.193C29.9693 126.427 29.9438 126.661 29.9843 126.897C30.0249 127.132 30.1286 127.349 30.2955 127.549Z" fill="black"/>
<path d="M34.6009 134.015L39.1879 128.727L41.59 130.811C42.1641 131.309 42.5741 131.859 42.82 132.461C43.0703 133.057 43.1485 133.659 43.0545 134.266C42.9605 134.873 42.6798 135.446 42.2123 135.984C41.7493 136.518 41.2218 136.877 40.6299 137.061C40.0424 137.24 39.4335 137.25 38.8032 137.091C38.1772 136.928 37.5772 136.597 37.0031 136.099L34.6009 134.015ZM36.6962 134.072L37.8142 135.042C38.1667 135.348 38.5281 135.546 38.8986 135.638C39.2784 135.73 39.6458 135.713 40.0009 135.588C40.361 135.468 40.6852 135.242 40.9735 134.91C41.2662 134.572 41.4444 134.219 41.508 133.851C41.5811 133.482 41.5435 133.118 41.3952 132.76C41.2563 132.402 41.0106 132.069 40.6581 131.763L39.5401 130.794L36.6962 134.072Z" fill="black"/>
<path d="M47.3687 143.749L47.9284 142.861L47.9664 142.613L48.9686 141.022C49.1463 140.74 49.1975 140.465 49.1221 140.197C49.0524 139.933 48.8399 139.689 48.4845 139.465C48.242 139.312 47.9774 139.2 47.6908 139.13C47.4133 139.058 47.1519 139.035 46.9066 139.061L47.0139 137.841C47.3722 137.822 47.7564 137.875 48.1666 138C48.5767 138.124 48.9622 138.3 49.3232 138.527C50.017 138.965 50.4526 139.468 50.63 140.036C50.8075 140.605 50.6776 141.236 50.2405 141.93L48.604 144.528L47.3687 143.749ZM45.9385 142.943C45.5832 142.719 45.3159 142.468 45.1367 142.189C44.9611 141.905 44.8713 141.616 44.8674 141.322C44.8635 141.028 44.9433 140.752 45.1068 140.492C45.2774 140.221 45.4915 140.025 45.7492 139.904C46.0125 139.786 46.3235 139.762 46.6823 139.83C47.0446 139.893 47.457 140.07 47.9195 140.361L49.1294 141.124L48.6443 141.894L47.5782 141.222C47.268 141.027 47.0217 140.942 46.8393 140.969C46.6625 141 46.5261 141.091 46.4302 141.243C46.3235 141.412 46.3031 141.589 46.3689 141.772C46.4438 141.953 46.5969 142.117 46.8282 142.262C47.0482 142.401 47.2776 142.475 47.5164 142.483C47.7588 142.486 47.9834 142.411 48.1903 142.258L48.0096 142.995C47.7289 143.228 47.4136 143.34 47.0639 143.333C46.7141 143.325 46.339 143.195 45.9385 142.943Z" fill="black"/>
<path d="M56.0382 148.482C55.6271 148.291 55.3095 148.033 55.0855 147.709C54.8614 147.384 54.7474 146.997 54.7435 146.546C54.7484 146.093 54.8829 145.582 55.147 145.014C55.4139 144.439 55.7147 144.006 56.0493 143.713C56.3839 143.42 56.7475 143.254 57.1401 143.216C57.5327 143.178 57.9437 143.259 58.3729 143.458C58.8324 143.672 59.1943 143.969 59.4588 144.349C59.732 144.726 59.8874 145.151 59.9248 145.624C59.9682 146.1 59.8719 146.592 59.6359 147.1C59.3971 147.614 59.0818 148.007 58.69 148.281C58.3042 148.558 57.8791 148.713 57.4148 148.747C56.9565 148.784 56.4977 148.696 56.0382 148.482ZM52.3705 148.829L55.4554 142.191L56.8066 142.819L56.343 143.816L55.6415 145.254L55.0622 146.738L53.7852 149.486L52.3705 148.829ZM56.3328 147.208C56.5686 147.317 56.8024 147.36 57.0344 147.335C57.2724 147.313 57.4921 147.228 57.6937 147.079C57.9041 146.927 58.0739 146.712 58.2031 146.434C58.3352 146.15 58.3901 145.881 58.3679 145.628C58.3518 145.378 58.2754 145.155 58.1385 144.959C58.0077 144.766 57.8244 144.615 57.5886 144.505C57.3529 144.396 57.116 144.352 56.878 144.373C56.64 144.395 56.4202 144.48 56.2187 144.629C56.0171 144.778 55.8504 144.995 55.7183 145.279C55.5891 145.557 55.5311 145.824 55.5444 146.08C55.5605 146.33 55.637 146.553 55.7738 146.749C55.9107 146.945 56.097 147.098 56.3328 147.208Z" fill="black"/>
<path d="M68.6001 153.061C68.1103 152.932 67.6977 152.705 67.3623 152.382C67.0287 152.053 66.7986 151.658 66.6721 151.197C66.552 150.738 66.5634 150.237 66.7063 149.696C66.851 149.148 67.0888 148.704 67.42 148.364C67.7575 148.026 68.1518 147.799 68.6029 147.683C69.0539 147.568 69.5244 147.575 70.0143 147.704C70.4526 147.82 70.8106 148.018 71.0883 148.298C71.366 148.578 71.5431 148.939 71.6198 149.38C71.6965 149.821 71.654 150.347 71.4923 150.96C71.3324 151.565 71.1126 152.045 70.8331 152.399C70.5552 152.746 70.2264 152.973 69.8466 153.08C69.4733 153.188 69.0578 153.182 68.6001 153.061ZM69.1879 151.892C69.4329 151.957 69.6706 151.958 69.901 151.894C70.1315 151.831 70.3328 151.708 70.505 151.526C70.6853 151.339 70.8146 151.098 70.8929 150.801C70.9729 150.498 70.9797 150.224 70.9134 149.979C70.8535 149.736 70.739 149.53 70.5698 149.361C70.4006 149.192 70.1935 149.076 69.9486 149.011C69.6972 148.945 69.4563 148.943 69.2258 149.006C68.9954 149.07 68.7909 149.191 68.6122 149.372C68.44 149.554 68.314 149.796 68.234 150.099C68.1557 150.396 68.1456 150.669 68.2038 150.919C68.2701 151.164 68.3879 151.371 68.5571 151.539C68.7263 151.708 68.9365 151.826 69.1879 151.892ZM70.2449 153.412L70.5257 152.349L70.9631 150.809L71.2723 149.247L72.0712 146.22L73.5796 146.618L71.6856 153.793L70.2449 153.412Z" fill="black"/>
<path d="M76.5414 150.563L77.5774 148.3L77.6487 149.233C77.3658 149.187 77.1455 149.067 76.988 148.873C76.8381 148.673 76.7866 148.428 76.8336 148.139C76.8795 147.856 77.0085 147.643 77.2205 147.502C77.4336 147.355 77.6751 147.303 77.9449 147.346C78.2213 147.391 78.4339 147.517 78.5827 147.723C78.7326 147.923 78.7846 148.165 78.7387 148.448C78.7248 148.533 78.7043 148.618 78.6773 148.701C78.6579 148.779 78.6194 148.871 78.5617 148.976C78.5106 149.083 78.4307 149.222 78.3218 149.393L77.5186 150.722L76.5414 150.563Z" fill="black"/>
<path d="M80.4834 155.377L83.9825 148.559L85.5801 148.647L88.3216 155.808L86.6242 155.714L84.4068 149.403L85.0459 149.438L82.1409 155.468L80.4834 155.377ZM82.1233 153.965L82.6201 152.76L86.2147 152.958L86.5866 154.21L82.1233 153.965Z" fill="black"/>
<path d="M94.0572 155.474L91.2739 150.345L92.8759 150.185L95.2066 154.605L94.4106 154.685L95.8909 149.884L97.3835 149.735L95.6592 155.314L94.0572 155.474Z" fill="black"/>
<path d="M101.183 154.444L100.01 149.193L101.533 148.853L102.706 154.104L101.183 154.444ZM100.608 148.291C100.328 148.354 100.083 148.323 99.8705 148.2C99.6585 148.076 99.5256 147.894 99.4719 147.654C99.4181 147.413 99.4609 147.192 99.6002 146.99C99.7395 146.788 99.9491 146.656 100.229 146.593C100.509 146.531 100.754 146.558 100.964 146.675C101.173 146.785 101.305 146.961 101.359 147.201C101.415 147.455 101.375 147.686 101.237 147.895C101.104 148.095 100.894 148.227 100.608 148.291Z" fill="black"/>
<path d="M108.648 146.505C109.045 146.348 109.43 146.29 109.804 146.328C110.181 146.359 110.525 146.503 110.834 146.76C111.141 147.012 111.395 147.392 111.596 147.9L112.726 150.765L111.275 151.338L110.233 148.696C110.074 148.293 109.866 148.031 109.611 147.91C109.361 147.786 109.075 147.788 108.753 147.915C108.523 148.006 108.335 148.137 108.188 148.31C108.045 148.474 107.96 148.676 107.933 148.916C107.912 149.153 107.963 149.427 108.085 149.737L109.062 152.212L107.61 152.784L105.636 147.78L107.022 147.233L107.568 148.619L107.143 148.303C107.191 147.897 107.346 147.538 107.61 147.226C107.874 146.914 108.22 146.674 108.648 146.505Z" fill="black"/>
<path d="M119.112 147.237C118.625 147.553 118.128 147.737 117.621 147.788C117.11 147.833 116.631 147.751 116.184 147.54C115.743 147.325 115.378 146.995 115.087 146.547C114.793 146.094 114.64 145.625 114.627 145.141C114.617 144.647 114.738 144.179 114.991 143.736C115.241 143.288 115.609 142.906 116.096 142.59C116.571 142.282 117.05 142.114 117.533 142.087C118.012 142.054 118.456 142.167 118.863 142.427L118.202 143.631C117.947 143.495 117.697 143.435 117.452 143.45C117.214 143.462 116.991 143.535 116.784 143.669C116.56 143.815 116.392 143.996 116.278 144.212C116.165 144.429 116.114 144.664 116.128 144.918C116.147 145.168 116.242 145.424 116.413 145.687C116.583 145.95 116.779 146.141 116.999 146.26C117.225 146.376 117.46 146.426 117.705 146.41C117.949 146.395 118.183 146.314 118.406 146.169C118.613 146.035 118.773 145.864 118.884 145.656C118.998 145.44 119.043 145.184 119.019 144.89L120.393 144.785C120.461 145.257 120.384 145.708 120.163 146.138C119.937 146.562 119.587 146.929 119.112 147.237Z" fill="black"/>
<path d="M124.114 143.32L120.482 139.351L121.633 138.297L125.265 142.267L124.114 143.32ZM120.552 138.271C120.34 138.464 120.112 138.56 119.866 138.559C119.621 138.557 119.415 138.466 119.249 138.284C119.082 138.102 119.009 137.888 119.029 137.644C119.05 137.4 119.165 137.181 119.377 136.987C119.588 136.793 119.815 136.695 120.055 136.692C120.292 136.683 120.493 136.77 120.66 136.952C120.835 137.144 120.915 137.364 120.899 137.614C120.884 137.854 120.768 138.073 120.552 138.271Z" fill="black"/>
</g>
<defs>
<clipPath id="clip0_20208_354">
<rect width="170" height="170" fill="white"/>
</clipPath>
</defs>
</svg>
