<svg width="1554" height="292" viewBox="0 0 1554 292" fill="none" xmlns="http://www.w3.org/2000/svg">
<path fill-rule="evenodd" clip-rule="evenodd" d="M559.45 10.4511L537.059 16.4506C535.992 16.7365 535.359 17.8332 535.645 18.9001L539.66 33.8861C539.946 34.9531 541.043 35.5862 542.11 35.3004L562.784 29.7608C569.046 28.0828 575.483 31.7991 577.161 38.0613C578.839 44.3235 575.123 50.7603 568.86 52.4383L548.186 57.9779C547.119 58.2638 546.486 59.3604 546.772 60.4274L550.875 75.7379C551.16 76.8048 552.257 77.438 553.324 77.1521L575.715 71.1525C592.477 66.6611 602.424 49.4316 597.933 32.6693C593.442 15.9071 576.212 5.95963 559.45 10.4511Z" fill="black" fill-opacity="0.06"/>
<path fill-rule="evenodd" clip-rule="evenodd" d="M1469.73 193.075L1447.34 199.075C1446.28 199.361 1445.64 200.457 1445.93 201.524L1449.94 216.51C1450.23 217.577 1451.33 218.21 1452.39 217.924L1473.07 212.385C1479.33 210.707 1485.77 214.423 1487.44 220.685C1489.12 226.948 1485.41 233.384 1479.14 235.062L1458.47 240.602C1457.4 240.888 1456.77 241.984 1457.06 243.051L1461.16 258.362C1461.44 259.429 1462.54 260.062 1463.61 259.776L1486 253.777C1502.76 249.285 1512.71 232.056 1508.22 215.293C1503.73 198.531 1486.5 188.584 1469.73 193.075Z" fill="black" fill-opacity="0.06"/>
<path fill-rule="evenodd" clip-rule="evenodd" d="M413.542 261.837L391.151 267.837C390.084 268.123 389.451 269.219 389.737 270.286L393.752 285.272C394.038 286.339 395.135 286.973 396.202 286.687L416.876 281.147C423.138 279.469 429.575 283.185 431.253 289.448C432.931 295.71 429.214 302.147 422.952 303.825L402.278 309.364C401.211 309.65 400.578 310.747 400.864 311.814L404.966 327.124C405.252 328.191 406.349 328.824 407.416 328.538L429.807 322.539C446.569 318.047 456.516 300.818 452.025 284.056C447.533 267.293 430.304 257.346 413.542 261.837Z" fill="black" fill-opacity="0.06"/>
<path fill-rule="evenodd" clip-rule="evenodd" d="M814.401 154.428L792.01 160.427C790.943 160.713 790.31 161.81 790.596 162.877L794.612 177.863C794.897 178.93 795.994 179.563 797.061 179.277L817.735 173.737C823.997 172.059 830.434 175.776 832.112 182.038C833.79 188.3 830.074 194.737 823.811 196.415L803.137 201.955C802.071 202.24 801.437 203.337 801.723 204.404L805.826 219.714C806.112 220.781 807.208 221.415 808.275 221.129L830.666 215.129C847.428 210.638 857.376 193.408 852.884 176.646C848.393 159.884 831.163 149.936 814.401 154.428Z" fill="black" fill-opacity="0.06"/>
<path fill-rule="evenodd" clip-rule="evenodd" d="M1217.19 46.4999L1194.8 52.4995C1193.73 52.7853 1193.1 53.882 1193.39 54.9489L1197.4 69.935C1197.69 71.002 1198.79 71.6351 1199.85 71.3492L1220.53 65.8097C1226.79 64.1317 1233.23 67.848 1234.9 74.1102C1236.58 80.3724 1232.86 86.8092 1226.6 88.4872L1205.93 94.0268C1204.86 94.3127 1204.23 95.4093 1204.51 96.4763L1208.62 111.787C1208.9 112.854 1210 113.487 1211.07 113.201L1233.46 107.201C1250.22 102.71 1260.17 85.4804 1255.68 68.7182C1251.18 51.9559 1233.95 42.0085 1217.19 46.4999Z" fill="black" fill-opacity="0.06"/>
<path fill-rule="evenodd" clip-rule="evenodd" d="M488.428 135.627L466.037 141.626C464.97 141.912 464.337 143.009 464.623 144.076L468.638 159.062C468.924 160.129 470.021 160.762 471.088 160.476L491.762 154.936C498.024 153.258 504.461 156.975 506.139 163.237C507.816 169.499 504.1 175.936 497.838 177.614L477.164 183.153C476.097 183.439 475.464 184.536 475.75 185.603L479.852 200.914C480.138 201.981 481.235 202.614 482.302 202.328L504.692 196.328C521.455 191.837 531.402 174.607 526.911 157.845C522.419 141.083 505.19 131.135 488.428 135.627Z" fill="black" fill-opacity="0.06"/>
<path fill-rule="evenodd" clip-rule="evenodd" d="M889.287 28.2167L866.896 34.2162C865.829 34.5021 865.196 35.5988 865.482 36.6657L869.497 51.6514C869.783 52.7184 870.88 53.3515 871.947 53.0657L892.621 47.5261C898.883 45.8481 905.32 49.5644 906.998 55.8266C908.676 62.0888 904.96 68.5256 898.697 70.2036L878.023 75.7432C876.956 76.0291 876.323 77.1257 876.609 78.1927L880.712 93.5035C880.997 94.5704 882.094 95.2036 883.161 94.9177L905.552 88.9181C922.314 84.4267 932.261 67.1972 927.77 50.435C923.279 33.6727 906.049 23.7253 889.287 28.2167Z" fill="black" fill-opacity="0.06"/>
<path fill-rule="evenodd" clip-rule="evenodd" d="M435.309 -62.6129L412.919 -56.6133C411.852 -56.3275 411.219 -55.2308 411.504 -54.1639L415.52 -39.178C415.806 -38.1111 416.902 -37.4779 417.969 -37.7638L438.643 -43.3034C444.906 -44.9814 451.342 -41.2651 453.02 -35.0029C454.698 -28.7406 450.982 -22.3038 444.72 -20.6259L424.046 -15.0863C422.979 -14.8004 422.346 -13.7037 422.632 -12.6368L426.734 2.6739C427.02 3.74083 428.117 4.374 429.184 4.08812L451.574 -1.91145C468.337 -6.40288 478.284 -23.6324 473.793 -40.3946C469.301 -57.1569 452.072 -67.1043 435.309 -62.6129Z" fill="black" fill-opacity="0.06"/>
<path fill-rule="evenodd" clip-rule="evenodd" d="M942.36 226.287L919.969 232.287C918.902 232.572 918.269 233.669 918.555 234.736L922.57 249.722C922.856 250.789 923.953 251.422 925.02 251.136L945.694 245.596C951.956 243.919 958.393 247.635 960.071 253.897C961.749 260.159 958.032 266.596 951.77 268.274L931.096 273.814C930.029 274.1 929.396 275.196 929.682 276.263L933.784 291.574C934.07 292.641 935.167 293.274 936.234 292.988L958.624 286.988C975.387 282.497 985.334 265.268 980.843 248.505C976.351 231.743 959.122 221.796 942.36 226.287Z" fill="black" fill-opacity="0.06"/>
<path fill-rule="evenodd" clip-rule="evenodd" d="M1345.15 118.359L1322.76 124.359C1321.69 124.645 1321.06 125.741 1321.35 126.808L1325.36 141.794C1325.65 142.861 1326.74 143.494 1327.81 143.208L1348.48 137.669C1354.75 135.991 1361.18 139.707 1362.86 145.969C1364.54 152.232 1360.82 158.668 1354.56 160.346L1333.89 165.886C1332.82 166.172 1332.19 167.268 1332.47 168.335L1336.58 183.646C1336.86 184.713 1337.96 185.346 1339.02 185.06L1361.42 179.061C1378.18 174.569 1388.13 157.34 1383.63 140.578C1379.14 123.815 1361.91 113.868 1345.15 118.359Z" fill="black" fill-opacity="0.06"/>
<path fill-rule="evenodd" clip-rule="evenodd" d="M158.59 117.861L136.2 123.86C135.133 124.146 134.5 125.243 134.786 126.31L138.801 141.296C139.087 142.363 140.184 142.996 141.251 142.71L161.925 137.17C168.187 135.492 174.624 139.209 176.302 145.471C177.98 151.733 174.263 158.17 168.001 159.848L147.327 165.387C146.26 165.673 145.627 166.77 145.913 167.837L150.015 183.148C150.301 184.214 151.398 184.848 152.465 184.562L174.855 178.562C191.618 174.071 201.565 156.841 197.074 140.079C192.582 123.317 175.353 113.369 158.59 117.861Z" fill="black" fill-opacity="0.06"/>
<path fill-rule="evenodd" clip-rule="evenodd" d="M87.5683 243.036L65.1776 249.036C64.1106 249.321 63.4775 250.418 63.7634 251.485L67.7789 266.471C68.0647 267.538 69.1614 268.171 70.2283 267.885L90.9024 262.346C97.1646 260.668 103.601 264.384 105.279 270.646C106.957 276.908 103.241 283.345 96.9788 285.023L76.3048 290.563C75.2378 290.849 74.6047 291.945 74.8906 293.012L78.993 308.323C79.2789 309.39 80.3756 310.023 81.4425 309.737L103.833 303.737C120.595 299.246 130.543 282.017 126.051 265.254C121.56 248.492 104.331 238.545 87.5683 243.036Z" fill="black" fill-opacity="0.06"/>
<path fill-rule="evenodd" clip-rule="evenodd" d="M34.4501 44.7963L12.0594 50.7958C10.9925 51.0817 10.3593 52.1784 10.6452 53.2453L14.6607 68.2315C14.9466 69.2985 16.0433 69.9316 17.1102 69.6457L37.7844 64.1061C44.0466 62.4282 50.4834 66.1444 52.1614 72.4067C53.8393 78.6689 50.1231 85.1057 43.8608 86.7837L23.1867 92.3233C22.1197 92.6092 21.4866 93.7058 21.7724 94.7728L25.8748 110.083C26.1607 111.15 27.2574 111.783 28.3243 111.497L50.715 105.498C67.4773 101.006 77.4247 83.7768 72.9333 67.0145C68.4419 50.2523 51.2123 40.3048 34.4501 44.7963Z" fill="black" fill-opacity="0.06"/>
<circle cx="-24.8461" cy="199.854" r="35.7728" transform="rotate(-15 -24.8461 199.854)" fill="black" fill-opacity="0.06"/>
<circle cx="624.203" cy="238.234" r="35.7728" transform="rotate(-15 624.203 238.234)" fill="black" fill-opacity="0.06"/>
<circle cx="1025.06" cy="130.824" r="35.7728" transform="rotate(-15 1025.06 130.824)" fill="black" fill-opacity="0.06"/>
<circle cx="1427.85" cy="22.8963" r="35.7728" transform="rotate(-15 1427.85 22.8963)" fill="black" fill-opacity="0.06"/>
<circle cx="35.7728" cy="35.7728" r="35.7728" transform="matrix(-0.965926 0.258819 0.258819 0.965926 323.964 175.502)" fill="black" fill-opacity="0.06"/>
<circle cx="35.7728" cy="35.7728" r="35.7728" transform="matrix(-0.965926 0.258819 0.258819 0.965926 270.845 -22.7378)" fill="black" fill-opacity="0.06"/>
<circle cx="372.149" cy="93.4798" r="35.7728" transform="rotate(-15 372.149 93.4798)" fill="black" fill-opacity="0.06"/>
<circle cx="773.009" cy="-13.9304" r="35.7728" transform="rotate(-15 773.009 -13.9304)" fill="black" fill-opacity="0.06"/>
<circle cx="1282.43" cy="276.104" r="35.7728" transform="rotate(-15 1282.43 276.104)" fill="black" fill-opacity="0.06"/>
<circle cx="35.7728" cy="35.7728" r="35.7728" transform="matrix(-0.965926 0.258819 0.258819 0.965926 724.823 68.0928)" fill="black" fill-opacity="0.06"/>
<circle cx="35.7728" cy="35.7728" r="35.7728" transform="matrix(-0.965926 0.258819 0.258819 0.965926 1125.68 -39.3174)" fill="black" fill-opacity="0.06"/>
<circle cx="35.7728" cy="35.7728" r="35.7728" transform="matrix(-0.965926 0.258819 0.258819 0.965926 777.896 266.162)" fill="black" fill-opacity="0.06"/>
<circle cx="35.7728" cy="35.7728" r="35.7728" transform="matrix(-0.965926 0.258819 0.258819 0.965926 1178.75 158.752)" fill="black" fill-opacity="0.06"/>
<circle cx="35.7728" cy="35.7728" r="35.7728" transform="matrix(-0.965926 0.258819 0.258819 0.965926 1581.55 50.8247)" fill="black" fill-opacity="0.06"/>
<rect x="432.04" y="41.7949" width="67.4958" height="67.4958" rx="10" transform="rotate(-15 432.04 41.7949)" fill="black" fill-opacity="0.06"/>
<rect x="1342.32" y="224.419" width="67.4958" height="67.4958" rx="10" transform="rotate(-15 1342.32 224.419)" fill="black" fill-opacity="0.06"/>
<rect x="31.1812" y="149.205" width="67.4958" height="67.4958" rx="10" transform="rotate(-15 31.1812 149.205)" fill="black" fill-opacity="0.06"/>
<rect x="684.094" y="186.549" width="67.4958" height="67.4958" rx="10" transform="rotate(-15 684.094 186.549)" fill="black" fill-opacity="0.06"/>
<rect x="1084.95" y="79.1387" width="67.4958" height="67.4958" rx="10" transform="rotate(-15 1084.95 79.1387)" fill="black" fill-opacity="0.06"/>
<rect x="1487.74" y="-28.7886" width="67.4958" height="67.4958" rx="10" transform="rotate(-15 1487.74 -28.7886)" fill="black" fill-opacity="0.06"/>
<rect width="67.4958" height="67.4958" rx="10" transform="matrix(-0.965926 0.258819 0.258819 0.965926 219.027 205.017)" fill="black" fill-opacity="0.06"/>
<rect width="67.4958" height="67.4958" rx="10" transform="matrix(-0.965926 0.258819 0.258819 0.965926 165.909 6.77783)" fill="black" fill-opacity="0.06"/>
<rect width="67.4958" height="67.4958" rx="10" transform="matrix(-0.965926 0.258819 0.258819 0.965926 620.852 97.3486)" fill="black" fill-opacity="0.06"/>
<rect width="67.4958" height="67.4958" rx="10" transform="matrix(-0.965926 0.258819 0.258819 0.965926 1021.71 -10.061)" fill="black" fill-opacity="0.06"/>
<rect width="67.4958" height="67.4958" rx="10" transform="matrix(-0.965926 0.258819 0.258819 0.965926 1531.14 279.973)" fill="black" fill-opacity="0.06"/>
<rect width="67.4958" height="67.4958" rx="10" transform="matrix(-0.965926 0.258819 0.258819 0.965926 1074.78 188.009)" fill="black" fill-opacity="0.06"/>
<rect width="67.4958" height="67.4958" rx="10" transform="matrix(-0.965926 0.258819 0.258819 0.965926 1477.58 80.0811)" fill="black" fill-opacity="0.06"/>
<path d="M658.616 -11.6674C660.311 -18.059 668.258 -20.1885 672.922 -15.5005L710.52 22.2967C715.183 26.9847 713.065 34.9742 706.707 36.6778L655.447 50.4131C649.089 52.1167 643.259 46.2567 644.954 39.8651L658.616 -11.6674Z" fill="black" fill-opacity="0.06"/>
<path d="M1166.11 278.884C1167.8 272.493 1175.75 270.363 1180.41 275.051L1218.01 312.848C1222.68 317.536 1220.56 325.526 1214.2 327.23L1162.94 340.965C1156.58 342.668 1150.75 336.808 1152.45 330.417L1166.11 278.884Z" fill="black" fill-opacity="0.06"/>
<path d="M1568.9 170.957C1570.59 164.565 1578.54 162.436 1583.21 167.124L1620.8 204.921C1625.47 209.609 1623.35 217.598 1616.99 219.302L1565.73 233.037C1559.37 234.741 1553.54 228.881 1555.24 222.489L1568.9 170.957Z" fill="black" fill-opacity="0.06"/>
<path d="M512.708 239.719C514.403 233.328 522.35 231.198 527.014 235.886L564.612 273.683C569.275 278.371 567.157 286.361 560.799 288.065L509.539 301.8C503.181 303.503 497.351 297.643 499.046 291.252L512.708 239.719Z" fill="black" fill-opacity="0.06"/>
<path d="M913.568 132.31C915.262 125.918 923.21 123.789 927.873 128.477L965.471 166.274C970.135 170.962 968.016 178.951 961.658 180.655L910.398 194.39C904.04 196.094 898.211 190.234 899.905 183.842L913.568 132.31Z" fill="black" fill-opacity="0.06"/>
<path d="M1316.36 24.382C1318.05 17.9903 1326 15.8608 1330.66 20.5489L1368.26 58.346C1372.93 63.034 1370.81 71.0235 1364.45 72.7271L1313.19 86.4624C1306.83 88.166 1301 82.306 1302.7 75.9144L1316.36 24.382Z" fill="black" fill-opacity="0.06"/>
<path d="M310.83 293.813C312.525 287.421 320.472 285.292 325.135 289.98L362.734 327.777C367.397 332.465 365.279 340.454 358.921 342.158L307.66 355.893C301.302 357.597 295.473 351.737 297.167 345.345L310.83 293.813Z" fill="black" fill-opacity="0.06"/>
<path d="M398.866 164.078C394.203 159.39 386.255 161.519 384.561 167.911L370.898 219.443C369.204 225.835 375.033 231.695 381.391 229.991L432.652 216.256C439.01 214.552 441.128 206.563 436.465 201.875L398.866 164.078Z" fill="black" fill-opacity="0.06"/>
<path d="M799.725 56.668C795.062 51.98 787.115 54.1095 785.42 60.5011L771.758 112.034C770.063 118.425 775.892 124.285 782.25 122.582L833.511 108.846C839.869 107.143 841.987 99.1531 837.324 94.4651L799.725 56.668Z" fill="black" fill-opacity="0.06"/>
<path d="M1202.52 -51.2597C1197.85 -55.9477 1189.91 -53.8182 1188.21 -47.4266L1174.55 4.10578C1172.85 10.4974 1178.68 16.3574 1185.04 14.6538L1236.3 0.918531C1242.66 -0.785071 1244.78 -8.77459 1240.11 -13.4626L1202.52 -51.2597Z" fill="black" fill-opacity="0.06"/>
<path d="M345.748 -34.1621C341.085 -38.8501 333.137 -36.7206 331.443 -30.329L317.78 21.2034C316.086 27.5951 321.915 33.4551 328.273 31.7515L379.533 18.0162C385.891 16.3126 388.01 8.32307 383.346 3.63505L345.748 -34.1621Z" fill="black" fill-opacity="0.06"/>
<path d="M852.798 254.738C848.135 250.05 840.187 252.179 838.493 258.571L824.83 310.103C823.136 316.495 828.965 322.355 835.323 320.651L886.584 306.916C892.941 305.212 895.06 297.223 890.396 292.535L852.798 254.738Z" fill="black" fill-opacity="0.06"/>
<path d="M1255.59 146.81C1250.93 142.122 1242.98 144.252 1241.28 150.643L1227.62 202.176C1225.93 208.567 1231.76 214.427 1238.11 212.724L1289.37 198.988C1295.73 197.285 1297.85 189.295 1293.19 184.607L1255.59 146.81Z" fill="black" fill-opacity="0.06"/>
<path d="M257.757 95.7423C259.452 89.3507 267.399 87.2212 272.063 91.9092L309.661 129.706C314.324 134.394 312.206 142.384 305.848 144.087L254.587 157.823C248.229 159.526 242.4 153.666 244.095 147.275L257.757 95.7423Z" fill="black" fill-opacity="0.06"/>
<path d="M4.69248 -48.9218C6.38706 -55.3134 14.3345 -57.4429 18.9978 -52.7549L56.5961 -14.9577C61.2595 -10.2697 59.1412 -2.2802 52.7833 -0.576595L1.52253 13.1587C-4.8354 14.8623 -10.6646 9.00228 -8.97002 2.61066L4.69248 -48.9218Z" fill="black" fill-opacity="0.06"/>
<path d="M1.87077 270.452C-2.79258 265.764 -10.74 267.894 -12.4346 274.285L-26.0971 325.818C-27.7916 332.209 -21.9625 338.069 -15.6045 336.366L35.6563 322.63C42.0142 320.927 44.1324 312.937 39.4691 308.249L1.87077 270.452Z" fill="black" fill-opacity="0.06"/>
</svg>
