<svg width="1594" height="590" viewBox="0 0 1594 590" fill="none" xmlns="http://www.w3.org/2000/svg">
<g opacity="0.1">
<line y1="95.9731" x2="2756.37" y2="95.9731" stroke="#1C2229"/>
<line y1="195.203" x2="2756.37" y2="195.203" stroke="#1C2229"/>
<line y1="294.432" x2="2756.37" y2="294.432" stroke="#1C2229"/>
<line y1="393.662" x2="2756.37" y2="393.662" stroke="#1C2229"/>
<line y1="492.891" x2="2756.37" y2="492.891" stroke="#1C2229"/>
<line x1="1472.4" y1="1.25452e-08" x2="1472.4" y2="1543.57" stroke="#1C2229"/>
<line x1="1373.17" y1="1.25452e-08" x2="1373.17" y2="1543.57" stroke="#1C2229"/>
<line x1="1273.94" y1="1.25452e-08" x2="1273.94" y2="1543.57" stroke="#1C2229"/>
<line x1="1174.72" y1="1.25452e-08" x2="1174.72" y2="1543.57" stroke="#1C2229"/>
<line x1="1075.49" y1="1.25452e-08" x2="1075.49" y2="1543.57" stroke="#1C2229"/>
<line x1="976.256" y1="1.25452e-08" x2="976.256" y2="1543.57" stroke="#1C2229"/>
<line x1="877.026" y1="1.25452e-08" x2="877.026" y2="1543.57" stroke="#1C2229"/>
<line x1="777.798" y1="1.25452e-08" x2="777.798" y2="1543.57" stroke="#1C2229"/>
<line x1="678.568" y1="1.25452e-08" x2="678.568" y2="1543.57" stroke="#1C2229"/>
<line x1="579.338" y1="1.25452e-08" x2="579.338" y2="1543.57" stroke="#1C2229"/>
<line x1="480.11" y1="1.25452e-08" x2="480.109" y2="1543.57" stroke="#1C2229"/>
<line x1="380.878" y1="1.25452e-08" x2="380.878" y2="1543.57" stroke="#1C2229"/>
<line x1="281.65" y1="1.25452e-08" x2="281.65" y2="1543.57" stroke="#1C2229"/>
<line x1="182.422" y1="1.25452e-08" x2="182.422" y2="1543.57" stroke="#1C2229"/>
<line x1="83.1897" y1="1.25452e-08" x2="83.1896" y2="1543.57" stroke="#1C2229"/>
<line x1="1571.63" y1="1.25452e-08" x2="1571.63" y2="1543.57" stroke="#1C2229"/>
</g>
</svg>
