<svg width="770" height="300" viewBox="0 0 770 300" fill="none" xmlns="http://www.w3.org/2000/svg">
<path fill-rule="evenodd" clip-rule="evenodd" d="M138.601 -7.42158L118.39 -2.00592C117.323 -1.72004 116.689 -0.62336 116.975 0.443572L120.538 13.7408C120.824 14.8077 121.921 15.4409 122.988 15.155L141.636 10.1581C147.338 8.63047 153.198 12.0138 154.725 17.7149C156.253 23.4161 152.87 29.2762 147.168 30.8038L128.52 35.8007C127.453 36.0866 126.82 37.1832 127.106 38.2502L130.748 51.8427C131.034 52.9096 132.13 53.5428 133.197 53.2569L153.409 47.8413C168.669 43.7522 177.725 28.0664 173.636 12.806C169.547 -2.45438 153.861 -11.5106 138.601 -7.42158Z" fill="black" fill-opacity="0.06"/>
<path fill-rule="evenodd" clip-rule="evenodd" d="M12.8009 219.557L-7.41062 224.973C-8.47755 225.258 -9.11071 226.355 -8.82483 227.422L-5.26195 240.719C-4.97606 241.786 -3.87939 242.419 -2.81246 242.133L15.8363 237.136C21.5374 235.609 27.3975 238.992 28.9251 244.693C30.4527 250.394 27.0694 256.254 21.3683 257.782L2.71954 262.779C1.65261 263.065 1.01945 264.161 1.30533 265.228L4.94753 278.821C5.23341 279.888 6.33008 280.521 7.39701 280.235L27.6085 274.82C42.8689 270.731 51.9251 255.045 47.8361 239.785C43.7471 224.524 28.0613 215.468 12.8009 219.557Z" fill="black" fill-opacity="0.06"/>
<path fill-rule="evenodd" clip-rule="evenodd" d="M737.412 25.3978L717.201 30.8134C716.134 31.0993 715.5 32.196 715.786 33.2629L719.349 46.56C719.635 47.6269 720.732 48.2601 721.799 47.9742L740.447 42.9773C746.149 41.4497 752.009 44.833 753.536 50.5342C755.064 56.2353 751.681 62.0954 745.979 63.623L727.331 68.6199C726.264 68.9058 725.631 70.0025 725.917 71.0694L729.559 84.662C729.845 85.729 730.941 86.3621 732.008 86.0762L752.22 80.6606C767.48 76.5716 776.536 60.8858 772.447 45.6254C768.358 30.365 752.672 21.3087 737.412 25.3978Z" fill="black" fill-opacity="0.06"/>
<path fill-rule="evenodd" clip-rule="evenodd" d="M74.8215 106.303L54.61 111.719C53.5431 112.005 52.9099 113.101 53.1958 114.168L56.7587 127.465C57.0446 128.532 58.1412 129.165 59.2082 128.879L77.8569 123.883C83.558 122.355 89.4181 125.738 90.9457 131.439C92.4733 137.141 89.09 143.001 83.3889 144.528L64.7402 149.525C63.6732 149.811 63.0401 150.908 63.3259 151.975L66.9682 165.568C67.254 166.634 68.3507 167.268 69.4176 166.982L89.6291 161.566C104.89 157.477 113.946 141.791 109.857 126.531C105.768 111.27 90.0819 102.214 74.8215 106.303Z" fill="black" fill-opacity="0.06"/>
<path fill-rule="evenodd" clip-rule="evenodd" d="M123.139 286.627L102.928 292.043C101.861 292.329 101.228 293.425 101.513 294.492L105.076 307.789C105.362 308.856 106.459 309.489 107.526 309.203L126.174 304.206C131.876 302.679 137.736 306.062 139.263 311.763C140.791 317.464 137.408 323.324 131.706 324.852L113.058 329.849C111.991 330.135 111.358 331.231 111.644 332.298L115.286 345.891C115.572 346.958 116.668 347.591 117.735 347.305L137.947 341.89C153.207 337.801 162.263 322.115 158.174 306.855C154.085 291.594 138.4 282.538 123.139 286.627Z" fill="black" fill-opacity="0.06"/>
<path fill-rule="evenodd" clip-rule="evenodd" d="M602.859 254.887L582.648 260.303C581.581 260.589 580.948 261.685 581.234 262.752L584.797 276.049C585.083 277.116 586.179 277.749 587.246 277.464L605.895 272.467C611.596 270.939 617.456 274.322 618.984 280.023C620.511 285.725 617.128 291.585 611.427 293.112L592.778 298.109C591.711 298.395 591.078 299.492 591.364 300.559L595.006 314.151C595.292 315.218 596.389 315.851 597.456 315.566L617.667 310.15C632.928 306.061 641.984 290.375 637.895 275.115C633.806 259.854 618.12 250.798 602.859 254.887Z" fill="black" fill-opacity="0.06"/>
<path fill-rule="evenodd" clip-rule="evenodd" d="M376.96 125.877L356.749 131.293C355.682 131.579 355.049 132.676 355.334 133.743L358.897 147.04C359.183 148.107 360.28 148.74 361.347 148.454L379.995 143.457C385.697 141.93 391.557 145.313 393.084 151.014C394.612 156.715 391.229 162.575 385.527 164.103L366.879 169.1C365.812 169.386 365.179 170.482 365.465 171.549L369.107 185.142C369.393 186.209 370.489 186.842 371.556 186.556L391.768 181.14C407.028 177.051 416.084 161.366 411.995 146.105C407.906 130.845 392.221 121.788 376.96 125.877Z" fill="black" fill-opacity="0.06"/>
<path fill-rule="evenodd" clip-rule="evenodd" d="M440.645 8.28106L420.433 13.6967C419.366 13.9826 418.733 15.0793 419.019 16.1462L422.582 29.4432C422.868 30.5102 423.964 31.1433 425.031 30.8574L443.68 25.8606C449.381 24.3329 455.241 27.7163 456.769 33.4174C458.296 39.1186 454.913 44.9786 449.212 46.5063L430.563 51.5032C429.496 51.789 428.863 52.8857 429.149 53.9526L432.791 67.5453C433.077 68.6123 434.174 69.2454 435.241 68.9596L455.452 63.5439C470.713 59.4549 479.769 43.7691 475.68 28.5087C471.591 13.2483 455.905 4.19205 440.645 8.28106Z" fill="black" fill-opacity="0.06"/>
<path fill-rule="evenodd" clip-rule="evenodd" d="M488.962 188.605L468.751 194.02C467.684 194.306 467.051 195.403 467.337 196.47L470.9 209.767C471.185 210.834 472.282 211.467 473.349 211.181L491.998 206.185C497.699 204.657 503.559 208.04 505.087 213.741C506.614 219.443 503.231 225.303 497.53 226.83L478.881 231.827C477.814 232.113 477.181 233.21 477.467 234.277L481.109 247.869C481.395 248.936 482.491 249.569 483.558 249.283L503.77 243.868C519.03 239.779 528.086 224.093 523.997 208.832C519.908 193.572 504.223 184.516 488.962 188.605Z" fill="black" fill-opacity="0.06"/>
<circle cx="-24.8829" cy="66.2835" r="32.5677" transform="rotate(-15 -24.8829 66.2835)" fill="black" fill-opacity="0.06"/>
<circle cx="337.423" cy="-30.7964" r="32.5677" transform="rotate(-15 337.423 -30.7964)" fill="black" fill-opacity="0.06"/>
<circle cx="434.099" cy="330.006" r="32.5677" transform="rotate(-15 434.099 330.006)" fill="black" fill-opacity="0.06"/>
<circle cx="197.553" cy="199.953" r="32.5677" transform="rotate(-15 197.553 199.953)" fill="black" fill-opacity="0.06"/>
<circle cx="32.5677" cy="32.5677" r="32.5677" transform="matrix(-0.965926 0.258819 0.258819 0.965926 652.342 -52.2598)" fill="black" fill-opacity="0.06"/>
<circle cx="32.5677" cy="32.5677" r="32.5677" transform="matrix(-0.965926 0.258819 0.258819 0.965926 700.66 128.064)" fill="black" fill-opacity="0.06"/>
<circle cx="796.405" cy="232.926" r="32.5677" transform="rotate(-15 796.405 232.926)" fill="black" fill-opacity="0.06"/>
<circle cx="565.134" cy="101.459" r="32.5677" transform="rotate(-15 565.134 101.459)" fill="black" fill-opacity="0.06"/>
<circle cx="32.5677" cy="32.5677" r="32.5677" transform="matrix(-0.965926 0.258819 0.258819 0.965926 290.037 44.8198)" fill="black" fill-opacity="0.06"/>
<circle cx="32.5677" cy="32.5677" r="32.5677" transform="matrix(-0.965926 0.258819 0.258819 0.965926 338.354 225.143)" fill="black" fill-opacity="0.06"/>
<rect x="23.4864" y="20.8787" width="61.4485" height="61.4485" rx="10" transform="rotate(-15 23.4864 20.8787)" fill="black" fill-opacity="0.06"/>
<rect x="485.986" y="283.659" width="61.4485" height="61.4485" rx="10" transform="rotate(-15 485.986 283.659)" fill="black" fill-opacity="0.06"/>
<rect x="252.957" y="152.663" width="61.4485" height="61.4485" rx="10" transform="rotate(-15 252.957 152.663)" fill="black" fill-opacity="0.06"/>
<rect width="61.4485" height="61.4485" rx="10" transform="matrix(-0.965926 0.258819 0.258819 0.965926 562.084 -26.8032)" fill="black" fill-opacity="0.06"/>
<rect width="61.4485" height="61.4485" rx="10" transform="matrix(-0.965926 0.258819 0.258819 0.965926 610.401 153.521)" fill="black" fill-opacity="0.06"/>
<rect width="61.4485" height="61.4485" rx="10" transform="matrix(-0.965926 0.258819 0.258819 0.965926 194.502 71.6904)" fill="black" fill-opacity="0.06"/>
<rect width="61.4485" height="61.4485" rx="10" transform="matrix(-0.965926 0.258819 0.258819 0.965926 242.82 252.014)" fill="black" fill-opacity="0.06"/>
<path d="M229.762 -27.7937C231.305 -33.6126 238.54 -35.5513 242.786 -31.2834L277.015 3.12729C281.261 7.39528 279.332 14.669 273.544 16.2199L226.876 28.7246C221.088 30.2756 215.781 24.9406 217.324 19.1216L229.762 -27.7937Z" fill="black" fill-opacity="0.06"/>
<path d="M96.0476 201.305C97.5904 195.486 104.826 193.548 109.071 197.816L143.301 232.226C147.546 236.494 145.618 243.768 139.83 245.319L93.1617 257.824C87.3734 259.375 82.0665 254.04 83.6092 248.221L96.0476 201.305Z" fill="black" fill-opacity="0.06"/>
<path d="M640.385 55.4505C641.928 49.6315 649.163 47.6928 653.409 51.9608L687.639 86.3714C691.884 90.6394 689.956 97.9131 684.167 99.4641L637.499 111.969C631.711 113.52 626.404 108.185 627.947 102.366L640.385 55.4505Z" fill="black" fill-opacity="0.06"/>
<path d="M772.369 116.72C768.123 112.452 760.888 114.391 759.345 120.21L746.907 167.125C745.364 172.944 750.671 178.279 756.459 176.728L803.127 164.224C808.916 162.673 810.844 155.399 806.599 151.131L772.369 116.72Z" fill="black" fill-opacity="0.06"/>
<path d="M688.744 235.928C690.287 230.109 697.522 228.171 701.768 232.439L735.997 266.849C740.243 271.117 738.315 278.391 732.526 279.942L685.858 292.447C680.07 293.997 674.763 288.662 676.306 282.844L688.744 235.928Z" fill="black" fill-opacity="0.06"/>
<path d="M461.871 103.283C463.413 97.4643 470.649 95.5256 474.894 99.7935L509.124 134.204C513.369 138.472 511.441 145.746 505.653 147.297L458.985 159.801C453.196 161.352 447.889 156.017 449.432 150.199L461.871 103.283Z" fill="black" fill-opacity="0.06"/>
<path d="M361.746 33.4766C357.5 29.2086 350.265 31.1473 348.722 36.9662L336.284 83.8815C334.741 89.7005 340.048 95.0355 345.836 93.4845L392.504 80.9799C398.293 79.4289 400.221 72.1552 395.975 67.8872L361.746 33.4766Z" fill="black" fill-opacity="0.06"/>
<path d="M410.063 213.8C405.818 209.532 398.583 211.471 397.04 217.29L384.601 264.205C383.059 270.024 388.366 275.359 394.154 273.808L440.822 261.304C446.61 259.753 448.539 252.479 444.293 248.211L410.063 213.8Z" fill="black" fill-opacity="0.06"/>
<path d="M-1.43916 130.792C-5.68469 126.524 -12.92 128.462 -14.4628 134.281L-26.9012 181.197C-28.4439 187.016 -23.137 192.351 -17.3487 190.8L29.3193 178.295C35.1076 176.744 37.036 169.47 32.7905 165.202L-1.43916 130.792Z" fill="black" fill-opacity="0.06"/>
<path d="M46.8784 311.115C42.6329 306.847 35.3975 308.786 33.8548 314.605L21.4164 361.52C19.8736 367.339 25.1805 372.674 30.9688 371.123L77.6368 358.619C83.4251 357.068 85.3536 349.794 81.108 345.526L46.8784 311.115Z" fill="black" fill-opacity="0.06"/>
</svg>
