<svg width="22" height="21" viewBox="0 0 22 21" fill="none" xmlns="http://www.w3.org/2000/svg">
<path d="M9.2476 9.62552C8.84983 9.62552 8.46834 9.78351 8.18705 10.0648L2.72022 15.5305C1.77513 16.4754 2.44435 18.0913 3.78078 18.0913L12.6494 18.0913C13.0471 18.0913 13.4286 17.9333 13.7099 17.652L19.1768 12.1863C20.1218 11.2414 19.4526 9.62552 18.1162 9.62552L9.2476 9.62552Z" fill="#EBF479" stroke="#16181D"/>
<path d="M9.2476 2.42434C8.84983 2.42434 8.46834 2.58234 8.18705 2.86358L2.72022 8.32934C1.77513 9.27424 2.44435 10.8901 3.78078 10.8901L12.6494 10.8901C13.0471 10.8901 13.4286 10.7321 13.7099 10.4509L19.1768 4.98511C20.1218 4.0402 19.4526 2.42434 18.1162 2.42434L9.2476 2.42434Z" fill="#EBF479" stroke="#16181D"/>
</svg>
