<svg width="56" height="56" viewBox="0 0 56 56" fill="none" xmlns="http://www.w3.org/2000/svg">
<g filter="url(#filter0_b_19413_3230)">
<rect x="56" y="56" width="56" height="56" rx="12" transform="rotate(180 56 56)" fill="white" fill-opacity="0.3"/>
</g>
<path fill-rule="evenodd" clip-rule="evenodd" d="M16.3503 43.6184C11.5983 40.0677 8.51507 34.3925 8.51507 28.0012C8.51507 17.2425 17.2439 8.51361 28.0026 8.51361C36.8854 8.51361 46.5848 13.8219 48.9282 21.9531C46.3066 12.8692 37.9329 6.22339 28.0026 6.22339C15.9775 6.22339 6.22485 15.976 6.22485 28.0012C6.22485 40.0263 15.9775 49.7789 28.0026 49.7789C40.0278 49.7789 49.7804 40.0263 49.7804 28.0012V26.8531H48.5849C48.5496 26.8531 48.4962 26.8531 48.4251 26.8531C48.2832 26.8531 48.082 26.8472 47.8216 26.8354C47.3067 26.8175 46.5966 26.782 45.7977 26.7111C44.1643 26.569 42.3001 26.2909 41.0338 25.782C38.9921 24.9653 37.8382 23.8883 36.5244 22.6218L36.4474 22.5509C35.1278 21.2844 33.6482 19.8582 31.074 18.6509C28.5412 17.4614 25.742 17.6508 23.6885 18.0769C22.6469 18.2899 21.7474 18.574 21.1142 18.8048C20.7946 18.9172 20.5402 19.0238 20.3627 19.0948C19.327 19.5327 18.321 20.0475 17.309 20.5269C17.309 20.5269 19.3034 21.0713 20.2857 21.3791C20.3212 21.3909 20.3746 21.4086 20.4515 21.4323C20.5994 21.4797 20.8124 21.5566 21.0668 21.6632C21.5877 21.8762 22.2683 22.1898 22.9428 22.6278C24.008 23.3083 24.8898 24.1724 25.2509 25.2257C22.9961 25.5216 20.8775 26.5158 19.2915 27.4449C18.3328 28.007 17.5339 28.5751 16.9717 28.9953C16.6936 29.2085 16.4687 29.386 16.3148 29.5102C16.1846 29.6168 14.1489 31.4098 14.1489 31.4098C14.1489 31.4098 16.7764 31.688 18.0724 31.9484C18.9364 32.12 20.0963 32.4041 21.3155 32.8243C22.5345 33.2503 23.7655 33.8066 24.7892 34.5227C25.813 35.2387 26.5646 36.0613 26.9314 37.0082C28.0085 39.7659 26.9493 42.4466 24.8247 43.9557C22.7238 45.4471 19.5342 45.8022 16.3444 43.6126L16.3503 43.6184ZM23.7832 47.0272C24.6412 46.749 25.4402 46.3406 26.1621 45.8317C29.0501 43.7782 30.571 40.0145 29.0738 36.1797C28.482 34.6706 27.3576 33.5225 26.1089 32.6466C24.8544 31.7709 23.4162 31.1317 22.0788 30.6642C21.2029 30.3564 20.3509 30.1197 19.6111 29.9422C19.8773 29.7706 20.1556 29.5931 20.4573 29.4155C22.2209 28.38 24.446 27.4272 26.5765 27.4272C29.7898 27.4272 32.1807 28.4154 34.4649 29.4689C34.6721 29.5634 34.8792 29.664 35.0922 29.7588C37.1339 30.7175 39.2762 31.7235 41.7675 31.7235C44.2591 31.7235 46.064 31.043 47.3599 30.3327C46.206 39.9908 37.9861 47.4827 28.0145 47.4827C26.5646 47.4827 25.1502 47.3231 23.795 47.0272H23.7832ZM44.8746 28.9303C44.0164 29.2203 42.9748 29.4333 41.7617 29.4333C39.8088 29.4333 38.1281 28.6522 35.9977 27.6579C35.8083 27.5691 35.619 27.4804 35.4237 27.3917C33.2873 26.4034 30.8196 25.3558 27.6061 25.1665C27.1741 23.042 25.5645 21.5862 24.1797 20.6985C24.0259 20.5979 23.8719 20.5032 23.7181 20.4145C23.8542 20.3848 23.9962 20.3494 24.1442 20.3197C26.0023 19.9351 28.2156 19.8404 30.0917 20.7281C32.3168 21.7756 33.5773 22.9827 34.8851 24.2374L34.9325 24.2788C36.2759 25.5689 37.702 26.9241 40.1816 27.9183C41.5605 28.4687 43.3477 28.7646 44.8746 28.9303Z" fill="black"/>
<defs>
<filter id="filter0_b_19413_3230" x="-10" y="-10" width="76" height="76" filterUnits="userSpaceOnUse" color-interpolation-filters="sRGB">
<feFlood flood-opacity="0" result="BackgroundImageFix"/>
<feGaussianBlur in="BackgroundImageFix" stdDeviation="5"/>
<feComposite in2="SourceAlpha" operator="in" result="effect1_backgroundBlur_19413_3230"/>
<feBlend mode="normal" in="SourceGraphic" in2="effect1_backgroundBlur_19413_3230" result="shape"/>
</filter>
</defs>
</svg>
