<svg width="56" height="56" viewBox="0 0 56 56" fill="none" xmlns="http://www.w3.org/2000/svg">
<g filter="url(#filter0_b_19413_3215)">
<rect width="56" height="56" rx="12" fill="white" fill-opacity="0.3"/>
</g>
<path d="M12.6537 23.4265C11.0904 21.9075 9.99442 19.9428 9.99442 17.6149V17.3672C10.1234 13.3883 13.3145 10.1853 17.1986 10.0697L41.9217 10.0697C42.5664 10.1027 43.0822 10.565 43.0822 11.2419V32.6722C43.6462 32.7713 43.9201 32.8539 44.4682 33.052C44.9034 33.2171 45.4997 33.5638 45.4997 33.5638V11.2419C45.4674 9.21116 43.888 7.57666 41.9057 7.57666L17.1825 7.57666C11.8478 7.65921 7.56079 12.1335 7.56079 17.6149C7.56079 20.8013 8.97907 23.5255 11.2999 25.4407C11.461 25.5729 11.6061 25.738 12.0251 25.738C12.7504 25.738 13.2661 25.1435 13.2339 24.4996C13.2178 23.9548 12.9921 23.7567 12.6537 23.4265Z" fill="#101010"/>
<path d="M41.2771 34.0748H21.8887C20.5832 34.0912 19.5356 35.1646 19.5356 36.5018V39.358C19.5679 40.679 20.6638 41.8016 21.9693 41.8016H23.4036V39.358H21.9693V36.5679C21.9693 36.5679 22.3238 36.5679 22.759 36.5679C25.2087 36.5679 27.0139 38.8957 27.0139 41.3889C27.0139 43.6013 25.0475 46.4244 21.7597 46.1934C18.8426 45.9952 17.2632 43.337 17.2632 41.3889V17.1848C17.2632 16.0952 16.3929 15.2036 15.3292 15.2036H13.3951V17.6802H14.8295L14.8295 41.4053C14.749 46.2264 18.1818 48.6534 21.7597 48.6534L41.2933 48.7193C45.2258 48.7193 48.4169 45.4504 48.4169 41.4053C48.4169 37.3604 45.2097 34.0748 41.2771 34.0748ZM45.9831 41.554C45.9026 44.1461 43.8235 46.2264 41.2771 46.2264L27.6907 46.1767C28.7706 44.889 29.4314 43.2214 29.4314 41.4053C29.4314 38.5491 27.7713 36.5844 27.7713 36.5844H41.2933C43.888 36.5844 45.9994 38.7473 45.9994 41.4053L45.9831 41.554Z" fill="#101010"/>
<path d="M36.054 18.1281H21.4362V15.6516H36.054C36.7148 15.6516 37.2629 16.1964 37.2629 16.8899C37.2629 17.5668 36.731 18.1281 36.054 18.1281Z" fill="#101010"/>
<path d="M36.0544 29.784H21.4365V27.3074H36.0544C36.7152 27.3074 37.2632 27.8523 37.2632 28.5458C37.2632 29.2226 36.7314 29.784 36.0544 29.784Z" fill="#101010"/>
<path d="M38.6339 23.9546H21.4373V21.478H38.6176C39.2786 21.478 39.8265 22.0229 39.8265 22.7163C39.8426 23.3932 39.2947 23.9546 38.6339 23.9546Z" fill="#101010"/>
<defs>
<filter id="filter0_b_19413_3215" x="-10" y="-10" width="76" height="76" filterUnits="userSpaceOnUse" color-interpolation-filters="sRGB">
<feFlood flood-opacity="0" result="BackgroundImageFix"/>
<feGaussianBlur in="BackgroundImageFix" stdDeviation="5"/>
<feComposite in2="SourceAlpha" operator="in" result="effect1_backgroundBlur_19413_3215"/>
<feBlend mode="normal" in="SourceGraphic" in2="effect1_backgroundBlur_19413_3215" result="shape"/>
</filter>
</defs>
</svg>
