<svg width="56" height="56" viewBox="0 0 56 56" fill="none" xmlns="http://www.w3.org/2000/svg">
<g filter="url(#filter0_b_19413_3226)">
<rect x="56" y="56" width="56" height="56" rx="12" transform="rotate(180 56 56)" fill="white" fill-opacity="0.3"/>
</g>
<path fill-rule="evenodd" clip-rule="evenodd" d="M45.9616 13.1689L43.7754 45.3195L43.7262 45.3675C43.6263 46.1301 43.3506 46.7581 42.8852 47.2235C40.7793 49.3291 35.3472 47.5514 29.157 43.1817L30.7037 41.635C32.2728 42.7246 33.7747 43.6286 35.1607 44.3253C37.0305 45.2658 38.5772 45.7728 39.7256 45.9133C40.9066 46.0575 41.2803 45.7821 41.3622 45.7002C41.4437 45.6186 41.7192 45.245 41.5749 44.064C41.4345 42.9159 40.9274 41.3689 39.9873 39.4991C38.225 35.995 35.1403 31.7488 31.0751 27.5553L12.3874 46.2428L12.7453 42.8388L29.5518 26.0323C25.3586 21.9672 21.1124 18.8821 17.6083 17.1202C15.7385 16.18 14.1919 15.673 13.0435 15.5325C11.8624 15.3883 11.4888 15.6637 11.4072 15.7453C11.3253 15.8272 11.0499 16.2008 11.1942 17.3818C11.3349 18.5302 11.8416 20.0769 12.7821 21.9467C13.4788 23.3328 14.3828 24.8347 15.4724 26.4037L13.9257 27.9504C9.556 21.7602 7.77836 16.3281 9.88388 14.2223C10.3496 13.7565 10.9782 13.4808 11.7418 13.381C11.7567 13.365 11.7721 13.3493 11.7879 13.3339L43.9398 11.1472L46.109 11L45.9616 13.1689ZM32.2145 14.1042L42.1561 13.428L37.4723 18.1121C35.5817 16.3134 33.7363 15.013 32.2145 14.1039M28.024 14.3886L18.2842 15.0511C22.0961 16.9142 26.6449 20.2103 31.0751 24.509L35.9486 19.6355C33.9077 17.6995 31.9292 16.386 30.418 15.5421C29.7658 15.1753 29.0948 14.8429 28.4078 14.5463C28.2577 14.4823 28.1297 14.4296 28.024 14.3886ZM37.4588 21.1716L32.5984 26.032C36.8984 30.4635 40.1955 35.0136 42.0582 38.8264L42.7415 28.7748C42.6955 28.675 42.6378 28.555 42.5685 28.4149C42.2368 27.751 41.876 27.1021 41.4872 26.4699C40.6149 25.0426 39.3037 23.1683 37.4592 21.1713M38.9834 19.6473C40.7652 21.5686 42.0816 23.3891 43.0083 24.8519L43.6817 14.9487L38.9834 19.6473ZM21.4137 25.5397L14.2162 32.7373L13.8585 36.1412L23.4655 26.5342L21.4137 25.5397ZM30.5735 33.6425L20.9784 43.2374L24.3823 42.8797L31.7078 35.5539L30.5735 33.6425Z" fill="black"/>
<defs>
<filter id="filter0_b_19413_3226" x="-10" y="-10" width="76" height="76" filterUnits="userSpaceOnUse" color-interpolation-filters="sRGB">
<feFlood flood-opacity="0" result="BackgroundImageFix"/>
<feGaussianBlur in="BackgroundImageFix" stdDeviation="5"/>
<feComposite in2="SourceAlpha" operator="in" result="effect1_backgroundBlur_19413_3226"/>
<feBlend mode="normal" in="SourceGraphic" in2="effect1_backgroundBlur_19413_3226" result="shape"/>
</filter>
</defs>
</svg>
