<svg width="50" height="22" viewBox="0 0 50 22" fill="none" xmlns="http://www.w3.org/2000/svg">
<path d="M48.921 1.49383C49.1937 1.53746 49.4501 1.35178 49.4937 1.07911C49.5373 0.806436 49.3517 0.550021 49.079 0.506391L48.921 1.49383ZM1.0008 21.5284C1.0164 21.8041 1.25256 22.0149 1.52826 21.9993L6.02106 21.745C6.29677 21.7294 6.50762 21.4932 6.49201 21.2175C6.4764 20.9418 6.24025 20.731 5.96455 20.7466L1.97094 20.9727L1.74489 16.979C1.72929 16.7033 1.49313 16.4925 1.21743 16.5081C0.941732 16.5237 0.730883 16.7599 0.746489 17.0356L1.0008 21.5284ZM49.079 0.506391C42.7 -0.514299 33.8502 1.14589 25.0586 4.78814C16.2558 8.43505 7.43783 14.099 1.12703 21.1671L1.87297 21.8331C8.06217 14.9012 16.7442 9.31511 25.4414 5.712C34.1498 2.10422 42.8 0.514409 48.921 1.49383L49.079 0.506391Z" fill="black"/>
</svg>
