<svg width="78" height="21" viewBox="0 0 78 21" fill="none" xmlns="http://www.w3.org/2000/svg">
<path opacity="0.8" d="M8.61328 4.36914L7.04883 4.33398C6.63867 4.33398 6.16406 4.375 5.625 4.45703C5.60156 4.91406 5.55469 5.50586 5.48438 6.23242C5.23828 8.81055 5.11523 10.4863 5.11523 11.2598C5.11523 12.0215 5.12695 12.5605 5.15039 12.877L3.49805 13L4.04297 4.31641L0.298828 4.10547C0.205078 4.10547 0.128906 4.0293 0.0703125 3.87695C0.0234375 3.72461 0 3.58398 0 3.45508C0 3.32617 0.0527344 3.18555 0.158203 3.0332C0.263672 2.88086 0.386719 2.80469 0.527344 2.80469C1.38281 2.83984 2.24414 2.89844 3.11133 2.98047C4.7168 3.12109 6.08203 3.19141 7.20703 3.19141L8.29688 3.15625C9.15234 3.13281 10.002 3.03906 10.8457 2.875C11.0332 2.91016 11.1504 3.20312 11.1973 3.75391C11.209 3.87109 11.2148 3.96484 11.2148 4.03516C10.4414 4.25781 9.57422 4.36914 8.61328 4.36914ZM20.3203 6.58398C19.8281 6.23242 19.1953 6.05664 18.4219 6.05664C17.6953 6.05664 17.0215 6.19141 16.4004 6.46094C15.2285 6.95312 14.4258 7.58594 13.9922 8.35938C13.8047 8.71094 13.7109 9.08594 13.7109 9.48438C13.7109 9.55469 13.7109 9.75391 13.7109 10.082C13.7109 10.3984 13.7695 10.832 13.8867 11.3828C14.0039 11.9219 14.0625 12.4727 14.0625 13.0352C13.8164 13.0469 13.6172 13.0762 13.4648 13.123C13.3125 13.1699 13.1836 13.1934 13.0781 13.1934C12.9727 13.1934 12.8789 13.1465 12.7969 13.0527C12.7266 12.959 12.6445 12.7773 12.5508 12.5078C12.5391 12.4375 12.5156 12.2383 12.4805 11.9102C12.4453 11.582 12.3984 11.1836 12.3398 10.7148C12.293 10.2461 12.2344 9.73633 12.1641 9.18555C12.1055 8.62305 12.0469 8.07227 11.9883 7.5332C11.8594 6.36133 11.7598 5.5 11.6895 4.94922C11.6895 4.66797 11.8945 4.52734 12.3047 4.52734C12.5508 4.52734 12.7441 4.63281 12.8848 4.84375C13.0254 5.04297 13.1367 5.27734 13.2188 5.54688C13.3008 5.80469 13.3535 6.0625 13.377 6.32031C13.4121 6.57812 13.4414 6.75977 13.4648 6.86523C15.0117 5.48242 16.9336 4.79102 19.2305 4.79102C19.4883 4.79102 19.7578 4.79688 20.0391 4.80859C20.1094 4.79688 20.1973 4.79102 20.3027 4.79102C20.4082 4.79102 20.5137 4.86133 20.6191 5.00195C20.748 5.16602 20.8125 5.36523 20.8125 5.59961C20.8125 6.18555 20.6484 6.51367 20.3203 6.58398ZM25.3301 19.627C25.084 20.1777 24.791 20.4531 24.4512 20.4531C24.2871 20.4531 24.1641 20.377 24.082 20.2246C24.0117 20.084 24.0117 19.9141 24.082 19.7148C24.3398 18.625 24.709 17.3828 25.1895 15.9883C25.6816 14.5938 26.0098 13.6562 26.1738 13.1758C25.7637 12.7656 25.1191 11.9453 24.2402 10.7148C22.4355 8.18359 21.5332 6.79492 21.5332 6.54883C21.5332 6.53711 21.5391 6.52539 21.5508 6.51367L22.2188 5.8457C23.1445 6.70117 24.3516 8.1543 25.8398 10.2051C26.2148 10.7207 26.5137 11.1543 26.7363 11.5059C26.9824 11.0137 27.1758 10.5918 27.3164 10.2402C27.457 9.87695 27.5684 9.58984 27.6504 9.37891C27.7441 9.15625 27.8672 8.86328 28.0195 8.5C28.418 7.52734 28.9688 6.29102 29.6719 4.79102C29.7773 4.74414 29.8887 4.7207 30.0059 4.7207C30.2988 4.7207 30.5098 4.79688 30.6387 4.94922C30.6855 5.00781 30.709 5.07812 30.709 5.16016C30.709 5.23047 30.6973 5.30078 30.6738 5.37109L25.3301 19.627ZM45.8086 11.1543C46.2891 10.9551 46.7578 10.7734 47.2148 10.6094C47.6719 10.4453 48.1055 10.3633 48.5156 10.3633C48.9375 10.3633 49.1484 10.4922 49.1484 10.75C49.1484 10.8086 49.1309 10.9023 49.0957 11.0312C49.0723 11.1484 48.9141 11.2949 48.6211 11.4707C48.3398 11.6348 47.9883 11.793 47.5664 11.9453C47.1562 12.0977 46.7051 12.2383 46.2129 12.3672C45.7207 12.4961 45.2402 12.6074 44.7715 12.7012C43.7988 12.9004 43.1074 13 42.6973 13C42.2871 13 41.8418 12.9531 41.3613 12.8594C40.8926 12.7656 40.4531 12.6133 40.043 12.4023C39.0938 11.9102 38.6191 11.1836 38.6191 10.2227C38.6191 10.1523 38.6191 10.0117 38.6191 9.80078C38.6191 9.58984 38.707 9.29102 38.8828 8.9043C39.0586 8.50586 39.3223 8.11328 39.6738 7.72656C40.0254 7.32812 40.4355 6.96484 40.9043 6.63672C41.8887 5.93359 42.9199 5.47656 43.998 5.26562C44.373 5.18359 44.6836 5.14258 44.9297 5.14258C45.1875 5.14258 45.3984 5.14844 45.5625 5.16016C45.7266 5.16016 45.8965 5.17188 46.0723 5.19531C46.248 5.20703 46.4004 5.24805 46.5293 5.31836C46.834 5.4707 46.9863 5.76953 46.9863 6.21484C46.9863 6.49609 46.7871 6.77148 46.3887 7.04102C46.2832 7.11133 46.1895 7.17578 46.1074 7.23438C46.0488 6.96484 45.9727 6.73633 45.8789 6.54883C45.7852 6.36133 45.5801 6.26758 45.2637 6.26758C43.8809 6.56055 42.6914 7 41.6953 7.58594C40.5703 8.25391 40.0078 8.95703 40.0078 9.69531C40.0078 9.77734 40.0137 9.86523 40.0254 9.95898C40.0254 10.709 40.3125 11.2422 40.8867 11.5586C41.3203 11.793 41.877 11.9102 42.5566 11.9102C43.248 11.9102 43.8457 11.834 44.3496 11.6816C44.8535 11.5176 45.3398 11.3418 45.8086 11.1543ZM50.4141 6.17969C50.3906 5.54688 50.3672 4.98438 50.3438 4.49219C50.3203 3.98828 50.3027 3.61914 50.291 3.38477C50.291 3.13867 50.1973 2.54688 50.0098 1.60938C50.1152 1.46875 50.2148 1.33398 50.3086 1.20508C50.4141 1.07617 50.5605 1.01172 50.748 1.01172C51.1582 1.01172 51.4746 2.74023 51.6973 6.19727C51.8145 8.20117 51.873 10.2051 51.873 12.209C51.873 12.748 51.498 13.0176 50.748 13.0176L50.6074 13C50.6074 12.3906 50.5898 11.6113 50.5547 10.6621C50.5195 9.71289 50.4902 8.88672 50.4668 8.18359C50.4551 7.48047 50.4375 6.8125 50.4141 6.17969ZM54.5098 4.73828C54.6621 6.92969 54.791 9.4668 54.8965 12.3496C54.8262 12.7129 54.5449 12.8945 54.0527 12.8945C53.9238 12.8945 53.7891 12.8711 53.6484 12.8242C53.5195 12.7656 53.4375 12.6895 53.4023 12.5957V4.73828H54.5098ZM52.875 2.34766C52.875 1.9375 53.1152 1.73242 53.5957 1.73242C53.9121 1.73242 54.1699 1.80273 54.3691 1.94336C54.4043 2.07227 54.4219 2.20117 54.4219 2.33008C54.4219 2.44727 54.375 2.56445 54.2812 2.68164C54.1875 2.79883 54.0469 2.85742 53.8594 2.85742C53.6719 2.85742 53.4844 2.81641 53.2969 2.73438C53.1094 2.64062 52.9688 2.51172 52.875 2.34766ZM62.7539 11.1543C63.2344 10.9551 63.7031 10.7734 64.1602 10.6094C64.6172 10.4453 65.0508 10.3633 65.4609 10.3633C65.8828 10.3633 66.0938 10.4922 66.0938 10.75C66.0938 10.8086 66.0762 10.9023 66.041 11.0312C66.0176 11.1484 65.8594 11.2949 65.5664 11.4707C65.2852 11.6348 64.9336 11.793 64.5117 11.9453C64.1016 12.0977 63.6504 12.2383 63.1582 12.3672C62.666 12.4961 62.1855 12.6074 61.7168 12.7012C60.7441 12.9004 60.0527 13 59.6426 13C59.2324 13 58.7871 12.9531 58.3066 12.8594C57.8379 12.7656 57.3984 12.6133 56.9883 12.4023C56.0391 11.9102 55.5645 11.1836 55.5645 10.2227C55.5645 10.1523 55.5645 10.0117 55.5645 9.80078C55.5645 9.58984 55.6523 9.29102 55.8281 8.9043C56.0039 8.50586 56.2676 8.11328 56.6191 7.72656C56.9707 7.32812 57.3809 6.96484 57.8496 6.63672C58.834 5.93359 59.8652 5.47656 60.9434 5.26562C61.3184 5.18359 61.6289 5.14258 61.875 5.14258C62.1328 5.14258 62.3438 5.14844 62.5078 5.16016C62.6719 5.16016 62.8418 5.17188 63.0176 5.19531C63.1934 5.20703 63.3457 5.24805 63.4746 5.31836C63.7793 5.4707 63.9316 5.76953 63.9316 6.21484C63.9316 6.49609 63.7324 6.77148 63.334 7.04102C63.2285 7.11133 63.1348 7.17578 63.0527 7.23438C62.9941 6.96484 62.918 6.73633 62.8242 6.54883C62.7305 6.36133 62.5254 6.26758 62.209 6.26758C60.8262 6.56055 59.6367 7 58.6406 7.58594C57.5156 8.25391 56.9531 8.95703 56.9531 9.69531C56.9531 9.77734 56.959 9.86523 56.9707 9.95898C56.9707 10.709 57.2578 11.2422 57.832 11.5586C58.2656 11.793 58.8223 11.9102 59.502 11.9102C60.1934 11.9102 60.791 11.834 61.2949 11.6816C61.7988 11.5176 62.2852 11.3418 62.7539 11.1543ZM68.7832 9.80078L68.8711 11.3301C68.8711 12.2676 68.6484 12.8359 68.2031 13.0352C68.1094 13.0703 67.998 13.0879 67.8691 13.0879C67.7402 13.0879 67.5879 13.0586 67.4121 13L67.4297 6.42578C67.4297 5.47656 67.3711 4.52734 67.2539 3.57812C67.1484 2.61719 67.0957 1.66211 67.0957 0.712891C67.0957 0.337891 67.2949 0.150391 67.6934 0.150391H67.834C67.916 0.150391 67.9688 0.15625 67.9922 0.167969C68.168 0.894531 68.2852 1.77344 68.3438 2.80469C68.4727 5.08984 68.5898 6.625 68.6953 7.41016C68.8945 7.30469 69.3398 7.00586 70.0312 6.51367C70.7227 6.02148 71.2793 5.62891 71.7012 5.33594C72.123 5.03125 72.5215 4.75 72.8965 4.49219C73.7754 3.91797 74.3262 3.63086 74.5488 3.63086C74.7363 3.63086 74.8828 3.74219 74.9883 3.96484C74.4023 4.70312 73.459 5.52344 72.1582 6.42578C71.6309 6.78906 71.1035 7.15234 70.5762 7.51562C70.0605 7.86719 69.5859 8.23633 69.1523 8.62305C69.9375 8.83398 70.6816 9.05664 71.3848 9.29102C72.0879 9.51367 72.7676 9.71875 73.4238 9.90625C74.9355 10.3516 76.2363 10.6035 77.3262 10.6621C77.3262 10.9785 77.2969 11.1836 77.2383 11.2773C77.1328 11.4414 76.916 11.5352 76.5879 11.5586H76.4473C75.7324 11.3594 74.7832 11.1367 73.5996 10.8906C71.2676 10.4102 69.6621 10.0469 68.7832 9.80078Z" fill="black"/>
</svg>
